<?xml version="1.0" encoding="UTF-8" standalone="no"?>
<!DOCTYPE svg PUBLIC "-//W3C//DTD SVG 1.1//EN"
 "http://www.w3.org/Graphics/SVG/1.1/DTD/svg11.dtd">
<!-- Generated by graphviz version 2.38.0 (20140413.2041)
 -->
<!-- Title: models_diagram Pages: 1 -->
<svg width="1100pt" height="399pt"
 viewBox="0.00 0.00 1100.34 399.00" xmlns="http://www.w3.org/2000/svg" xmlns:xlink="http://www.w3.org/1999/xlink">
<g id="graph0" class="graph" transform="scale(1 1) rotate(0) translate(4 395)">
<title>models_diagram</title>
<polygon fill="white" stroke="none" points="-4,4 -4,-395 1096.34,-395 1096.34,4 -4,4"/>
<!-- _diagram_info -->
<g id="node1" class="node"><title>_diagram_info</title>
<text text-anchor="start" x="153.346" y="-376.6" font-family="Times,serif" font-size="13.00">Models diagram</text>
<text text-anchor="start" x="153.346" y="-363.6" font-family="Times,serif" font-size="13.00">Date: Mar 27 2015 &#45; 14:47</text>
<text text-anchor="start" x="153.346" y="-350.6" font-family="Times,serif" font-size="13.00">Migration version: 20150325165059</text>
<text text-anchor="start" x="153.346" y="-337.6" font-family="Times,serif" font-size="13.00">Generated by RailRoady 1.3.0</text>
<text text-anchor="start" x="153.346" y="-324.6" font-family="Times,serif" font-size="13.00">http://railroady.prestonlee.com</text>
</g>
<!-- Ability -->
<g id="node2" class="node"><title>Ability</title>
<polygon fill="none" stroke="black" points="426.703,-372.5 371.363,-372.5 371.363,-336.5 426.703,-336.5 426.703,-372.5"/>
<text text-anchor="middle" x="399.033" y="-350.3" font-family="Times,serif" font-size="14.00">Ability</text>
</g>
<!-- Admin -->
<g id="node3" class="node"><title>Admin</title>
<ellipse fill="none" stroke="black" cx="480.033" cy="-354.5" rx="34.8458" ry="18"/>
<text text-anchor="middle" x="480.033" y="-350.3" font-family="Times,serif" font-size="14.00">Admin</text>
</g>
<!-- Role -->
<g id="node16" class="node"><title>Role</title>
<ellipse fill="none" stroke="black" cx="480.033" cy="-263" rx="27" ry="18"/>
<text text-anchor="middle" x="480.033" y="-258.8" font-family="Times,serif" font-size="14.00">Role</text>
</g>
<!-- Admin&#45;&gt;Role -->
<g id="edge1" class="edge"><title>Admin&#45;&gt;Role</title>
<path fill="none" stroke="#948ede" d="M480.033,-327.903C480.033,-316.441 480.033,-302.914 480.033,-291.263"/>
<ellipse fill="none" stroke="#948ede" cx="480.033" cy="-332.243" rx="4" ry="4"/>
<polygon fill="#948ede" stroke="#948ede" points="480.033,-291.204 484.533,-281.203 480.033,-286.204 480.033,-281.204 480.033,-281.204 480.033,-281.204 480.033,-286.204 475.533,-281.204 480.033,-291.204 480.033,-291.204"/>
</g>
<!-- ArmorBankAccount -->
<g id="node4" class="node"><title>ArmorBankAccount</title>
<ellipse fill="none" stroke="black" cx="1010.03" cy="-104" rx="82.1199" ry="18"/>
<text text-anchor="middle" x="1010.03" y="-99.8" font-family="Times,serif" font-size="14.00">ArmorBankAccount</text>
</g>
<!-- PaperTrail::Version -->
<g id="node19" class="node"><title>PaperTrail::Version</title>
<ellipse fill="none" stroke="black" cx="699.033" cy="-18" rx="79.1078" ry="18"/>
<text text-anchor="middle" x="699.033" y="-13.8" font-family="Times,serif" font-size="14.00">PaperTrail::Version</text>
</g>
<!-- ArmorBankAccount&#45;&gt;PaperTrail::Version -->
<g id="edge2" class="edge"><title>ArmorBankAccount&#45;&gt;PaperTrail::Version</title>
<path fill="none" stroke="#75be77" d="M952.331,-87.4147C896.873,-72.4359 813.482,-49.9123 757.703,-34.8465"/>
<ellipse fill="none" stroke="#75be77" cx="956.549" cy="-88.554" rx="4.00001" ry="4.00001"/>
<polygon fill="#75be77" stroke="#75be77" points="757.621,-34.8243 749.14,-27.8724 752.794,-33.5205 747.967,-32.2167 747.967,-32.2167 747.967,-32.2167 752.794,-33.5205 746.793,-36.561 757.621,-34.8243 757.621,-34.8243"/>
<text text-anchor="middle" x="896.364" y="-56.8" font-family="Times,serif" font-size="14.00">versions</text>
</g>
<!-- ArmorInvoice -->
<g id="node5" class="node"><title>ArmorInvoice</title>
<ellipse fill="none" stroke="black" cx="593.033" cy="-354.5" rx="60.4028" ry="18"/>
<text text-anchor="middle" x="593.033" y="-350.3" font-family="Times,serif" font-size="14.00">ArmorInvoice</text>
</g>
<!-- ArmorOrder -->
<g id="node6" class="node"><title>ArmorOrder</title>
<ellipse fill="none" stroke="black" cx="726.033" cy="-354.5" rx="54.1144" ry="18"/>
<text text-anchor="middle" x="726.033" y="-350.3" font-family="Times,serif" font-size="14.00">ArmorOrder</text>
</g>
<!-- ArmorProfile -->
<g id="node7" class="node"><title>ArmorProfile</title>
<ellipse fill="none" stroke="black" cx="286.033" cy="-104" rx="57.0391" ry="18"/>
<text text-anchor="middle" x="286.033" y="-99.8" font-family="Times,serif" font-size="14.00">ArmorProfile</text>
</g>
<!-- Category -->
<g id="node8" class="node"><title>Category</title>
<ellipse fill="none" stroke="black" cx="126.033" cy="-190" rx="42.5456" ry="18"/>
<text text-anchor="middle" x="126.033" y="-185.8" font-family="Times,serif" font-size="14.00">Category</text>
</g>
<!-- Category&#45;&gt;Category -->
<g id="edge3" class="edge"><title>Category&#45;&gt;Category</title>
<path fill="none" stroke="#d6d360" d="M173.856,-196.201C181.402,-195.284 186.556,-193.217 186.556,-190 186.556,-187.051 182.225,-185.069 175.691,-184.052"/>
<ellipse fill="none" stroke="#d6d360" cx="169.607" cy="-196.476" rx="4" ry="4"/>
<polygon fill="#d6d360" stroke="#d6d360" points="175.585,-184.044 165.966,-178.779 170.601,-183.654 165.616,-183.265 165.616,-183.265 165.616,-183.265 170.601,-183.654 165.265,-187.751 175.585,-184.044 175.585,-184.044"/>
<text text-anchor="middle" x="224.653" y="-185.8" font-family="Times,serif" font-size="14.00">subcategories</text>
</g>
<!-- Product -->
<g id="node13" class="node"><title>Product</title>
<ellipse fill="none" stroke="black" cx="173.033" cy="-104" rx="37.7352" ry="18"/>
<text text-anchor="middle" x="173.033" y="-99.8" font-family="Times,serif" font-size="14.00">Product</text>
</g>
<!-- Category&#45;&gt;Product -->
<g id="edge4" class="edge"><title>Category&#45;&gt;Product</title>
<path fill="none" stroke="#dd8e98" d="M140.299,-163.505C146.132,-153.079 152.868,-141.04 158.708,-130.603"/>
<polygon fill="#dd8e98" stroke="#dd8e98" points="140.202,-163.677 131.392,-170.207 137.761,-168.041 135.319,-172.404 135.319,-172.404 135.319,-172.404 137.761,-168.041 139.246,-174.602 140.202,-163.677 140.202,-163.677"/>
<polygon fill="#dd8e98" stroke="#dd8e98" points="158.884,-130.288 167.694,-123.759 161.326,-125.925 163.767,-121.561 163.767,-121.561 163.767,-121.561 161.326,-125.925 159.84,-119.364 158.884,-130.288 158.884,-130.288"/>
</g>
<!-- ProductCategory -->
<g id="node14" class="node"><title>ProductCategory</title>
<ellipse fill="none" stroke="black" cx="70.0334" cy="-18" rx="70.0668" ry="18"/>
<text text-anchor="middle" x="70.0334" y="-13.8" font-family="Times,serif" font-size="14.00">ProductCategory</text>
</g>
<!-- Category&#45;&gt;ProductCategory -->
<g id="edge5" class="edge"><title>Category&#45;&gt;ProductCategory</title>
<path fill="none" stroke="#e714bf" d="M117.877,-164.24C107.484,-132.688 89.5858,-78.3555 78.8747,-45.8396"/>
<ellipse fill="none" stroke="#e714bf" cx="119.208" cy="-168.279" rx="4.00001" ry="4.00001"/>
<polygon fill="#e714bf" stroke="#e714bf" points="78.797,-45.6036 79.9423,-34.6977 77.2326,-40.8546 75.6682,-36.1056 75.6682,-36.1056 75.6682,-36.1056 77.2326,-40.8546 71.3941,-37.5136 78.797,-45.6036 78.797,-45.6036"/>
</g>
<!-- Certificate -->
<g id="node9" class="node"><title>Certificate</title>
<ellipse fill="none" stroke="black" cx="408.033" cy="-104" rx="46.8805" ry="18"/>
<text text-anchor="middle" x="408.033" y="-99.8" font-family="Times,serif" font-size="14.00">Certificate</text>
</g>
<!-- Image -->
<g id="node10" class="node"><title>Image</title>
<ellipse fill="none" stroke="black" cx="190.033" cy="-18" rx="32.4063" ry="18"/>
<text text-anchor="middle" x="190.033" y="-13.8" font-family="Times,serif" font-size="14.00">Image</text>
</g>
<!-- Importer -->
<g id="node11" class="node"><title>Importer</title>
<ellipse fill="none" stroke="black" cx="839.033" cy="-354.5" rx="41.092" ry="18"/>
<text text-anchor="middle" x="839.033" y="-350.3" font-family="Times,serif" font-size="14.00">Importer</text>
</g>
<!-- Pricebreak -->
<g id="node12" class="node"><title>Pricebreak</title>
<ellipse fill="none" stroke="black" cx="288.033" cy="-18" rx="47.8323" ry="18"/>
<text text-anchor="middle" x="288.033" y="-13.8" font-family="Times,serif" font-size="14.00">Pricebreak</text>
</g>
<!-- Product&#45;&gt;Image -->
<g id="edge8" class="edge"><title>Product&#45;&gt;Image</title>
<path fill="none" stroke="#2c3166" d="M178.095,-77.9914C180.131,-67.9294 182.484,-56.3025 184.56,-46.0446"/>
<ellipse fill="none" stroke="#2c3166" cx="177.267" cy="-82.0808" rx="4.00001" ry="4.00001"/>
<polygon fill="#2c3166" stroke="#2c3166" points="184.615,-45.7747 191.009,-36.866 185.606,-40.874 186.598,-35.9734 186.598,-35.9734 186.598,-35.9734 185.606,-40.874 182.188,-35.0807 184.615,-45.7747 184.615,-45.7747"/>
</g>
<!-- Product&#45;&gt;Pricebreak -->
<g id="edge9" class="edge"><title>Product&#45;&gt;Pricebreak</title>
<path fill="none" stroke="#fe5f71" d="M199.44,-83.7118C217.052,-70.8474 240.23,-53.9176 258.46,-40.6011"/>
<ellipse fill="none" stroke="#fe5f71" cx="196.033" cy="-86.2005" rx="4.00002" ry="4.00002"/>
<polygon fill="#fe5f71" stroke="#fe5f71" points="258.892,-40.2862 269.621,-38.0216 262.929,-37.337 266.967,-34.3878 266.967,-34.3878 266.967,-34.3878 262.929,-37.337 264.312,-30.754 258.892,-40.2862 258.892,-40.2862"/>
</g>
<!-- Product&#45;&gt;ProductCategory -->
<g id="edge7" class="edge"><title>Product&#45;&gt;ProductCategory</title>
<path fill="none" stroke="#883132" d="M148.34,-82.8613C133.147,-70.4711 113.639,-54.5616 97.8946,-41.7218"/>
<ellipse fill="none" stroke="#883132" cx="151.519" cy="-85.4544" rx="4.00002" ry="4.00002"/>
<polygon fill="#883132" stroke="#883132" points="97.7971,-41.6423 92.8915,-31.8348 93.9223,-38.4822 90.0474,-35.3221 90.0474,-35.3221 90.0474,-35.3221 93.9223,-38.4822 87.2034,-38.8095 97.7971,-41.6423 97.7971,-41.6423"/>
</g>
<!-- Product&#45;&gt;PaperTrail::Version -->
<g id="edge6" class="edge"><title>Product&#45;&gt;PaperTrail::Version</title>
<path fill="none" stroke="#1333a6" d="M208.737,-89.219C212.518,-88.0207 216.333,-86.9174 220.033,-86 356.213,-52.2389 518.68,-34.0067 615.108,-25.4146"/>
<ellipse fill="none" stroke="#1333a6" cx="204.866" cy="-90.5141" rx="4.00001" ry="4.00001"/>
<polygon fill="#1333a6" stroke="#1333a6" points="615.131,-25.4126 625.487,-29.0211 620.112,-24.9755 625.093,-24.5383 625.093,-24.5383 625.093,-24.5383 620.112,-24.9755 624.7,-20.0556 615.131,-25.4126 615.131,-25.4126"/>
<text text-anchor="middle" x="399.364" y="-56.8" font-family="Times,serif" font-size="14.00">versions</text>
</g>
<!-- Request -->
<g id="node15" class="node"><title>Request</title>
<ellipse fill="none" stroke="black" cx="512.033" cy="-104" rx="38.6955" ry="18"/>
<text text-anchor="middle" x="512.033" y="-99.8" font-family="Times,serif" font-size="14.00">Request</text>
</g>
<!-- User -->
<g id="node18" class="node"><title>User</title>
<ellipse fill="none" stroke="black" cx="480.033" cy="-190" rx="27" ry="18"/>
<text text-anchor="middle" x="480.033" y="-185.8" font-family="Times,serif" font-size="14.00">User</text>
</g>
<!-- Role&#45;&gt;User -->
<g id="edge10" class="edge"><title>Role&#45;&gt;User</title>
<path fill="none" stroke="#8c22c3" d="M480.033,-234.753C480.033,-229.276 480.033,-223.521 480.033,-218.051"/>
<polygon fill="#8c22c3" stroke="#8c22c3" points="480.033,-234.813 475.533,-244.813 480.033,-239.813 480.033,-244.813 480.033,-244.813 480.033,-244.813 480.033,-239.813 484.533,-244.813 480.033,-234.813 480.033,-234.813"/>
<polygon fill="#8c22c3" stroke="#8c22c3" points="480.033,-218.029 484.533,-208.029 480.033,-213.029 480.033,-208.029 480.033,-208.029 480.033,-208.029 480.033,-213.029 475.533,-208.029 480.033,-218.029 480.033,-218.029"/>
</g>
<!-- Tax -->
<g id="node17" class="node"><title>Tax</title>
<ellipse fill="none" stroke="black" cx="925.033" cy="-354.5" rx="27" ry="18"/>
<text text-anchor="middle" x="925.033" y="-350.3" font-family="Times,serif" font-size="14.00">Tax</text>
</g>
<!-- User&#45;&gt;ArmorBankAccount -->
<g id="edge18" class="edge"><title>User&#45;&gt;ArmorBankAccount</title>
<path fill="none" stroke="#d0fdf8" d="M514.971,-186.449C573.425,-181.886 694.625,-171.167 796.033,-154 849.1,-145.016 908.736,-131.034 951.548,-120.302"/>
<ellipse fill="none" stroke="#d0fdf8" cx="510.8" cy="-186.77" rx="4" ry="4"/>
<ellipse fill="#d0fdf8" stroke="#d0fdf8" cx="955.462" cy="-119.315" rx="4.00001" ry="4.00001"/>
</g>
<!-- User&#45;&gt;ArmorProfile -->
<g id="edge17" class="edge"><title>User&#45;&gt;ArmorProfile</title>
<path fill="none" stroke="#c04333" d="M449.255,-177.436C432.027,-170.828 410.216,-162.239 391.033,-154 368.251,-144.216 343.067,-132.494 323.075,-122.97"/>
<ellipse fill="none" stroke="#c04333" cx="453.086" cy="-178.898" rx="4.00001" ry="4.00001"/>
<ellipse fill="#c04333" stroke="#c04333" cx="319.291" cy="-121.161" rx="4.00002" ry="4.00002"/>
</g>
<!-- User&#45;&gt;Certificate -->
<g id="edge16" class="edge"><title>User&#45;&gt;Certificate</title>
<path fill="none" stroke="#83955d" d="M445.496,-183.212C428.452,-178.425 409.373,-169.732 399.033,-154 394.353,-146.879 394.608,-137.983 396.693,-129.731"/>
<ellipse fill="none" stroke="#83955d" cx="449.774" cy="-184.287" rx="4.00001" ry="4.00001"/>
<ellipse fill="#83955d" stroke="#83955d" cx="397.925" cy="-125.905" rx="4.00001" ry="4.00001"/>
</g>
<!-- User&#45;&gt;Product -->
<g id="edge13" class="edge"><title>User&#45;&gt;Product</title>
<path fill="none" stroke="#f1cf91" d="M446.858,-181.516C397.162,-170.066 300.613,-146.894 220.033,-122 217.142,-121.107 214.166,-120.141 211.183,-119.14"/>
<ellipse fill="none" stroke="#f1cf91" cx="450.813" cy="-182.423" rx="4.00001" ry="4.00001"/>
<polygon fill="#f1cf91" stroke="#f1cf91" points="211.17,-119.136 203.193,-111.612 206.445,-117.5 201.72,-115.864 201.72,-115.864 201.72,-115.864 206.445,-117.5 200.248,-120.117 211.17,-119.136 211.17,-119.136"/>
</g>
<!-- User&#45;&gt;Request -->
<g id="edge14" class="edge"><title>User&#45;&gt;Request</title>
<path fill="none" stroke="#24973a" d="M508.821,-174.569C516.467,-169.223 523.775,-162.376 528.033,-154 531.741,-146.708 530.761,-138.377 527.968,-130.678"/>
<ellipse fill="none" stroke="#24973a" cx="505.154" cy="-176.907" rx="4.00002" ry="4.00002"/>
<polygon fill="#24973a" stroke="#24973a" points="527.871,-130.468 527.763,-119.502 525.775,-125.928 523.678,-121.389 523.678,-121.389 523.678,-121.389 525.775,-125.928 519.593,-123.276 527.871,-130.468 527.871,-130.468"/>
<text text-anchor="middle" x="584.071" y="-142.8" font-family="Times,serif" font-size="14.00">requests_of_sender</text>
</g>
<!-- User&#45;&gt;Request -->
<g id="edge15" class="edge"><title>User&#45;&gt;Request</title>
<path fill="none" stroke="#5cc0bb" d="M447.188,-180.588C422.029,-172.479 393.758,-158.689 407.426,-140 423.011,-118.691 439.008,-130.408 464.033,-122 466.915,-121.032 469.889,-120.017 472.878,-118.985"/>
<ellipse fill="none" stroke="#5cc0bb" cx="451.02" cy="-181.755" rx="4.00001" ry="4.00001"/>
<polygon fill="#5cc0bb" stroke="#5cc0bb" points="472.941,-118.963 483.865,-119.92 477.662,-117.317 482.384,-115.671 482.384,-115.671 482.384,-115.671 477.662,-117.317 480.902,-111.422 472.941,-118.963 472.941,-118.963"/>
<text text-anchor="middle" x="465.337" y="-142.8" font-family="Times,serif" font-size="14.00">requests_of_receiver</text>
</g>
<!-- Mailboxer::Message -->
<g id="node20" class="node"><title>Mailboxer::Message</title>
<ellipse fill="none" stroke="black" cx="651.033" cy="-104" rx="82.6045" ry="18"/>
<text text-anchor="middle" x="651.033" y="-99.8" font-family="Times,serif" font-size="14.00">Mailboxer::Message</text>
</g>
<!-- User&#45;&gt;Mailboxer::Message -->
<g id="edge11" class="edge"><title>User&#45;&gt;Mailboxer::Message</title>
<path fill="none" stroke="#3d171e" d="M514.982,-185.946C557.21,-181.516 624.76,-171.82 642.033,-154 647.642,-148.214 650.361,-140.149 651.549,-132.23"/>
<ellipse fill="none" stroke="#3d171e" cx="510.876" cy="-186.36" rx="4" ry="4"/>
<polygon fill="#3d171e" stroke="#3d171e" points="651.561,-132.078 656.832,-122.462 651.954,-127.093 652.346,-122.109 652.346,-122.109 652.346,-122.109 651.954,-127.093 647.86,-121.756 651.561,-132.078 651.561,-132.078"/>
<text text-anchor="middle" x="675.471" y="-142.8" font-family="Times,serif" font-size="14.00">messages</text>
</g>
<!-- Mailboxer::Receipt -->
<g id="node21" class="node"><title>Mailboxer::Receipt</title>
<ellipse fill="none" stroke="black" cx="831.033" cy="-104" rx="78.7367" ry="18"/>
<text text-anchor="middle" x="831.033" y="-99.8" font-family="Times,serif" font-size="14.00">Mailboxer::Receipt</text>
</g>
<!-- User&#45;&gt;Mailboxer::Receipt -->
<g id="edge12" class="edge"><title>User&#45;&gt;Mailboxer::Receipt</title>
<path fill="none" stroke="#905e53" d="M515.095,-185.982C559.953,-181.574 639.773,-171.884 706.033,-154 734.119,-146.42 764.53,-134.584 788.323,-124.445"/>
<ellipse fill="none" stroke="#905e53" cx="510.853" cy="-186.388" rx="4" ry="4"/>
<polygon fill="#905e53" stroke="#905e53" points="788.578,-124.334 799.543,-124.496 793.168,-122.35 797.757,-120.366 797.757,-120.366 797.757,-120.366 793.168,-122.35 795.971,-116.235 788.578,-124.334 788.578,-124.334"/>
<text text-anchor="middle" x="769.799" y="-142.8" font-family="Times,serif" font-size="14.00">receipts</text>
</g>
</g>
</svg>
