<?xml version="1.0" encoding="UTF-8" standalone="no"?>
<!DOCTYPE svg PUBLIC "-//W3C//DTD SVG 1.1//EN"
 "http://www.w3.org/Graphics/SVG/1.1/DTD/svg11.dtd">
<!-- Generated by graphviz version 2.38.0 (20140413.2041)
 -->
<!-- Title: models_diagram Pages: 1 -->
<svg width="1296pt" height="1473pt"
 viewBox="0.00 0.00 1295.96 1473.00" xmlns="http://www.w3.org/2000/svg" xmlns:xlink="http://www.w3.org/1999/xlink">
<g id="graph0" class="graph" transform="scale(1 1) rotate(0) translate(4 1469)">
<title>models_diagram</title>
<polygon fill="white" stroke="none" points="-4,4 -4,-1469 1291.96,-1469 1291.96,4 -4,4"/>
<!-- _diagram_info -->
<g id="node1" class="node"><title>_diagram_info</title>
<text text-anchor="start" x="289.818" y="-1317.6" font-family="Times,serif" font-size="13.00">Models diagram</text>
<text text-anchor="start" x="289.818" y="-1304.6" font-family="Times,serif" font-size="13.00">Date: Mar 27 2015 &#45; 14:47</text>
<text text-anchor="start" x="289.818" y="-1291.6" font-family="Times,serif" font-size="13.00">Migration version: 20150325165059</text>
<text text-anchor="start" x="289.818" y="-1278.6" font-family="Times,serif" font-size="13.00">Generated by RailRoady 1.3.0</text>
<text text-anchor="start" x="289.818" y="-1265.6" font-family="Times,serif" font-size="13.00">http://railroady.prestonlee.com</text>
</g>
<!-- Ability -->
<g id="node2" class="node"><title>Ability</title>
<polygon fill="none" stroke="black" points="507.671,-1273.5 507.671,-1317.5 563.34,-1317.5 563.34,-1273.5 507.671,-1273.5"/>
<text text-anchor="middle" x="535.505" y="-1302.3" font-family="Times,serif" font-size="14.00">Ability</text>
<polyline fill="none" stroke="black" points="507.671,-1295.5 563.34,-1295.5 "/>
<text text-anchor="middle" x="535.505" y="-1280.3" font-family="Times,serif" font-size="14.00"> </text>
</g>
<!-- ArmorBankAccount -->
<g id="node3" class="node"><title>ArmorBankAccount</title>
<path fill="none" stroke="black" d="M1149.05,-256.5C1149.05,-256.5 1275.96,-256.5 1275.96,-256.5 1281.96,-256.5 1287.96,-262.5 1287.96,-268.5 1287.96,-268.5 1287.96,-428.5 1287.96,-428.5 1287.96,-434.5 1281.96,-440.5 1275.96,-440.5 1275.96,-440.5 1149.05,-440.5 1149.05,-440.5 1143.05,-440.5 1137.05,-434.5 1137.05,-428.5 1137.05,-428.5 1137.05,-268.5 1137.05,-268.5 1137.05,-262.5 1143.05,-256.5 1149.05,-256.5"/>
<text text-anchor="middle" x="1212.51" y="-425.3" font-family="Times,serif" font-size="14.00">ArmorBankAccount</text>
<polyline fill="none" stroke="black" points="1137.05,-418.5 1287.96,-418.5 "/>
<text text-anchor="start" x="1145.05" y="-403.3" font-family="Times,serif" font-size="14.00">id :integer</text>
<text text-anchor="start" x="1145.05" y="-389.3" font-family="Times,serif" font-size="14.00">account_type :integer</text>
<text text-anchor="start" x="1145.05" y="-375.3" font-family="Times,serif" font-size="14.00">account_location :string</text>
<text text-anchor="start" x="1145.05" y="-361.3" font-family="Times,serif" font-size="14.00">account_bank :string</text>
<text text-anchor="start" x="1145.05" y="-347.3" font-family="Times,serif" font-size="14.00">account_routing :string</text>
<text text-anchor="start" x="1145.05" y="-333.3" font-family="Times,serif" font-size="14.00">account_swift :string</text>
<text text-anchor="start" x="1145.05" y="-319.3" font-family="Times,serif" font-size="14.00">account_account :string</text>
<text text-anchor="start" x="1145.05" y="-305.3" font-family="Times,serif" font-size="14.00">account_iban :string</text>
<text text-anchor="start" x="1145.05" y="-291.3" font-family="Times,serif" font-size="14.00">user_id :integer</text>
<text text-anchor="start" x="1145.05" y="-277.3" font-family="Times,serif" font-size="14.00">created_at :datetime</text>
<text text-anchor="start" x="1145.05" y="-263.3" font-family="Times,serif" font-size="14.00">updated_at :datetime</text>
</g>
<!-- PaperTrail::Version -->
<g id="node17" class="node"><title>PaperTrail::Version</title>
<ellipse fill="none" stroke="black" cx="865.505" cy="-64.5" rx="79.1078" ry="18"/>
<text text-anchor="middle" x="865.505" y="-60.3" font-family="Times,serif" font-size="14.00">PaperTrail::Version</text>
</g>
<!-- ArmorBankAccount&#45;&gt;PaperTrail::Version -->
<g id="edge1" class="edge"><title>ArmorBankAccount&#45;&gt;PaperTrail::Version</title>
<path fill="none" stroke="#d4837b" d="M1177.59,-248.843C1165.1,-223.685 1148.92,-198.325 1128.51,-179 1072.77,-126.247 988.656,-95.8503 930.635,-80.026"/>
<ellipse fill="none" stroke="#d4837b" cx="1179.44" cy="-252.679" rx="4.00002" ry="4.00002"/>
<polygon fill="#d4837b" stroke="#d4837b" points="930.503,-79.991 921.993,-73.0752 925.671,-78.7078 920.838,-77.4245 920.838,-77.4245 920.838,-77.4245 925.671,-78.7078 919.683,-81.7738 930.503,-79.991 930.503,-79.991"/>
<text text-anchor="middle" x="1127.84" y="-149.8" font-family="Times,serif" font-size="14.00">versions</text>
</g>
<!-- ArmorInvoice -->
<g id="node4" class="node"><title>ArmorInvoice</title>
<path fill="none" stroke="black" d="M745.183,-1182.5C745.183,-1182.5 865.828,-1182.5 865.828,-1182.5 871.828,-1182.5 877.828,-1188.5 877.828,-1194.5 877.828,-1194.5 877.828,-1396.5 877.828,-1396.5 877.828,-1402.5 871.828,-1408.5 865.828,-1408.5 865.828,-1408.5 745.183,-1408.5 745.183,-1408.5 739.183,-1408.5 733.183,-1402.5 733.183,-1396.5 733.183,-1396.5 733.183,-1194.5 733.183,-1194.5 733.183,-1188.5 739.183,-1182.5 745.183,-1182.5"/>
<text text-anchor="middle" x="805.505" y="-1393.3" font-family="Times,serif" font-size="14.00">ArmorInvoice</text>
<polyline fill="none" stroke="black" points="733.183,-1386.5 877.828,-1386.5 "/>
<text text-anchor="start" x="741.183" y="-1371.3" font-family="Times,serif" font-size="14.00">id :integer</text>
<text text-anchor="start" x="741.183" y="-1357.3" font-family="Times,serif" font-size="14.00">buyer_id :integer</text>
<text text-anchor="start" x="741.183" y="-1343.3" font-family="Times,serif" font-size="14.00">seller_id :integer</text>
<text text-anchor="start" x="741.183" y="-1329.3" font-family="Times,serif" font-size="14.00">product_id :integer</text>
<text text-anchor="start" x="741.183" y="-1315.3" font-family="Times,serif" font-size="14.00">unit_price :float</text>
<text text-anchor="start" x="741.183" y="-1301.3" font-family="Times,serif" font-size="14.00">count :integer</text>
<text text-anchor="start" x="741.183" y="-1287.3" font-family="Times,serif" font-size="14.00">amount :float</text>
<text text-anchor="start" x="741.183" y="-1273.3" font-family="Times,serif" font-size="14.00">created_at :datetime</text>
<text text-anchor="start" x="741.183" y="-1259.3" font-family="Times,serif" font-size="14.00">updated_at :datetime</text>
<text text-anchor="start" x="741.183" y="-1245.3" font-family="Times,serif" font-size="14.00">taxes_price :integer</text>
<text text-anchor="start" x="741.183" y="-1231.3" font-family="Times,serif" font-size="14.00">rebate_price :integer</text>
<text text-anchor="start" x="741.183" y="-1217.3" font-family="Times,serif" font-size="14.00">rebate_percent :integer</text>
<text text-anchor="start" x="741.183" y="-1203.3" font-family="Times,serif" font-size="14.00">deleted :boolean</text>
<text text-anchor="start" x="741.183" y="-1189.3" font-family="Times,serif" font-size="14.00">user_id :integer</text>
</g>
<!-- ArmorOrder -->
<g id="node5" class="node"><title>ArmorOrder</title>
<path fill="none" stroke="black" d="M908.286,-1126.5C908.286,-1126.5 1064.72,-1126.5 1064.72,-1126.5 1070.72,-1126.5 1076.72,-1132.5 1076.72,-1138.5 1076.72,-1138.5 1076.72,-1452.5 1076.72,-1452.5 1076.72,-1458.5 1070.72,-1464.5 1064.72,-1464.5 1064.72,-1464.5 908.286,-1464.5 908.286,-1464.5 902.286,-1464.5 896.286,-1458.5 896.286,-1452.5 896.286,-1452.5 896.286,-1138.5 896.286,-1138.5 896.286,-1132.5 902.286,-1126.5 908.286,-1126.5"/>
<text text-anchor="middle" x="986.505" y="-1449.3" font-family="Times,serif" font-size="14.00">ArmorOrder</text>
<polyline fill="none" stroke="black" points="896.286,-1442.5 1076.72,-1442.5 "/>
<text text-anchor="start" x="904.286" y="-1427.3" font-family="Times,serif" font-size="14.00">id :integer</text>
<text text-anchor="start" x="904.286" y="-1413.3" font-family="Times,serif" font-size="14.00">buyer_id :integer</text>
<text text-anchor="start" x="904.286" y="-1399.3" font-family="Times,serif" font-size="14.00">seller_id :integer</text>
<text text-anchor="start" x="904.286" y="-1385.3" font-family="Times,serif" font-size="14.00">account_id :integer</text>
<text text-anchor="start" x="904.286" y="-1371.3" font-family="Times,serif" font-size="14.00">product_id :integer</text>
<text text-anchor="start" x="904.286" y="-1357.3" font-family="Times,serif" font-size="14.00">order_id :integer</text>
<text text-anchor="start" x="904.286" y="-1343.3" font-family="Times,serif" font-size="14.00">status :integer</text>
<text text-anchor="start" x="904.286" y="-1329.3" font-family="Times,serif" font-size="14.00">unit_price :float</text>
<text text-anchor="start" x="904.286" y="-1315.3" font-family="Times,serif" font-size="14.00">count :integer</text>
<text text-anchor="start" x="904.286" y="-1301.3" font-family="Times,serif" font-size="14.00">amount :float</text>
<text text-anchor="start" x="904.286" y="-1287.3" font-family="Times,serif" font-size="14.00">summary :string</text>
<text text-anchor="start" x="904.286" y="-1273.3" font-family="Times,serif" font-size="14.00">description :text</text>
<text text-anchor="start" x="904.286" y="-1259.3" font-family="Times,serif" font-size="14.00">invoice_num :integer</text>
<text text-anchor="start" x="904.286" y="-1245.3" font-family="Times,serif" font-size="14.00">purchase_order_num :integer</text>
<text text-anchor="start" x="904.286" y="-1231.3" font-family="Times,serif" font-size="14.00">status_change :datetime</text>
<text text-anchor="start" x="904.286" y="-1217.3" font-family="Times,serif" font-size="14.00">uri :string</text>
<text text-anchor="start" x="904.286" y="-1203.3" font-family="Times,serif" font-size="14.00">deleted :boolean</text>
<text text-anchor="start" x="904.286" y="-1189.3" font-family="Times,serif" font-size="14.00">created_at :datetime</text>
<text text-anchor="start" x="904.286" y="-1175.3" font-family="Times,serif" font-size="14.00">updated_at :datetime</text>
<text text-anchor="start" x="904.286" y="-1161.3" font-family="Times,serif" font-size="14.00">taxes_price :integer</text>
<text text-anchor="start" x="904.286" y="-1147.3" font-family="Times,serif" font-size="14.00">rebate_price :integer</text>
<text text-anchor="start" x="904.286" y="-1133.3" font-family="Times,serif" font-size="14.00">rebate_percent :integer</text>
</g>
<!-- ArmorProfile -->
<g id="node6" class="node"><title>ArmorProfile</title>
<path fill="none" stroke="black" d="M322.396,-291.5C322.396,-291.5 444.614,-291.5 444.614,-291.5 450.614,-291.5 456.614,-297.5 456.614,-303.5 456.614,-303.5 456.614,-393.5 456.614,-393.5 456.614,-399.5 450.614,-405.5 444.614,-405.5 444.614,-405.5 322.396,-405.5 322.396,-405.5 316.396,-405.5 310.396,-399.5 310.396,-393.5 310.396,-393.5 310.396,-303.5 310.396,-303.5 310.396,-297.5 316.396,-291.5 322.396,-291.5"/>
<text text-anchor="middle" x="383.505" y="-390.3" font-family="Times,serif" font-size="14.00">ArmorProfile</text>
<polyline fill="none" stroke="black" points="310.396,-383.5 456.614,-383.5 "/>
<text text-anchor="start" x="318.396" y="-368.3" font-family="Times,serif" font-size="14.00">id :integer</text>
<text text-anchor="start" x="318.396" y="-354.3" font-family="Times,serif" font-size="14.00">armor_account :integer</text>
<text text-anchor="start" x="318.396" y="-340.3" font-family="Times,serif" font-size="14.00">armor_user :integer</text>
<text text-anchor="start" x="318.396" y="-326.3" font-family="Times,serif" font-size="14.00">user_id :integer</text>
<text text-anchor="start" x="318.396" y="-312.3" font-family="Times,serif" font-size="14.00">created_at :datetime</text>
<text text-anchor="start" x="318.396" y="-298.3" font-family="Times,serif" font-size="14.00">updated_at :datetime</text>
</g>
<!-- Category -->
<g id="node7" class="node"><title>Category</title>
<path fill="none" stroke="black" d="M98,-778.5C98,-778.5 207.011,-778.5 207.011,-778.5 213.011,-778.5 219.011,-784.5 219.011,-790.5 219.011,-790.5 219.011,-866.5 219.011,-866.5 219.011,-872.5 213.011,-878.5 207.011,-878.5 207.011,-878.5 98,-878.5 98,-878.5 92,-878.5 86,-872.5 86,-866.5 86,-866.5 86,-790.5 86,-790.5 86,-784.5 92,-778.5 98,-778.5"/>
<text text-anchor="middle" x="152.505" y="-863.3" font-family="Times,serif" font-size="14.00">Category</text>
<polyline fill="none" stroke="black" points="86,-856.5 219.011,-856.5 "/>
<text text-anchor="start" x="94" y="-841.3" font-family="Times,serif" font-size="14.00">id :integer</text>
<text text-anchor="start" x="94" y="-827.3" font-family="Times,serif" font-size="14.00">name :string</text>
<text text-anchor="start" x="94" y="-813.3" font-family="Times,serif" font-size="14.00">parent_id :integer</text>
<text text-anchor="start" x="94" y="-799.3" font-family="Times,serif" font-size="14.00">created_at :datetime</text>
<text text-anchor="start" x="94" y="-785.3" font-family="Times,serif" font-size="14.00">updated_at :datetime</text>
</g>
<!-- Category&#45;&gt;Category -->
<g id="edge2" class="edge"><title>Category&#45;&gt;Category</title>
<path fill="none" stroke="#8ce1b2" d="M202.625,-880.492C221.466,-882.338 237.011,-865.007 237.011,-828.5 237.011,-793.453 222.685,-776.079 204.869,-776.379"/>
<ellipse fill="none" stroke="#8ce1b2" cx="198.577" cy="-879.546" rx="4.00001" ry="4.00001"/>
<polygon fill="#8ce1b2" stroke="#8ce1b2" points="204.497,-776.451 193.821,-773.946 199.589,-777.407 194.681,-778.363 194.681,-778.363 194.681,-778.363 199.589,-777.407 195.542,-782.78 204.497,-776.451 204.497,-776.451"/>
<text text-anchor="middle" x="275.107" y="-824.3" font-family="Times,serif" font-size="14.00">subcategories</text>
</g>
<!-- Product -->
<g id="node11" class="node"><title>Product</title>
<path fill="none" stroke="black" d="M135.114,-179.5C135.114,-179.5 279.897,-179.5 279.897,-179.5 285.897,-179.5 291.897,-185.5 291.897,-191.5 291.897,-191.5 291.897,-505.5 291.897,-505.5 291.897,-511.5 285.897,-517.5 279.897,-517.5 279.897,-517.5 135.114,-517.5 135.114,-517.5 129.114,-517.5 123.114,-511.5 123.114,-505.5 123.114,-505.5 123.114,-191.5 123.114,-191.5 123.114,-185.5 129.114,-179.5 135.114,-179.5"/>
<text text-anchor="middle" x="207.505" y="-502.3" font-family="Times,serif" font-size="14.00">Product</text>
<polyline fill="none" stroke="black" points="123.114,-495.5 291.897,-495.5 "/>
<text text-anchor="start" x="131.114" y="-480.3" font-family="Times,serif" font-size="14.00">id :integer</text>
<text text-anchor="start" x="131.114" y="-466.3" font-family="Times,serif" font-size="14.00">name :string</text>
<text text-anchor="start" x="131.114" y="-452.3" font-family="Times,serif" font-size="14.00">slug :string</text>
<text text-anchor="start" x="131.114" y="-438.3" font-family="Times,serif" font-size="14.00">sku :string</text>
<text text-anchor="start" x="131.114" y="-424.3" font-family="Times,serif" font-size="14.00">description :text</text>
<text text-anchor="start" x="131.114" y="-410.3" font-family="Times,serif" font-size="14.00">start_date :datetime</text>
<text text-anchor="start" x="131.114" y="-396.3" font-family="Times,serif" font-size="14.00">end_date :datetime</text>
<text text-anchor="start" x="131.114" y="-382.3" font-family="Times,serif" font-size="14.00">unit_price :float</text>
<text text-anchor="start" x="131.114" y="-368.3" font-family="Times,serif" font-size="14.00">status :boolean</text>
<text text-anchor="start" x="131.114" y="-354.3" font-family="Times,serif" font-size="14.00">user_id :integer</text>
<text text-anchor="start" x="131.114" y="-340.3" font-family="Times,serif" font-size="14.00">created_at :datetime</text>
<text text-anchor="start" x="131.114" y="-326.3" font-family="Times,serif" font-size="14.00">updated_at :datetime</text>
<text text-anchor="start" x="131.114" y="-312.3" font-family="Times,serif" font-size="14.00">status_action :string</text>
<text text-anchor="start" x="131.114" y="-298.3" font-family="Times,serif" font-size="14.00">status_characteristic :string</text>
<text text-anchor="start" x="131.114" y="-284.3" font-family="Times,serif" font-size="14.00">amount :integer</text>
<text text-anchor="start" x="131.114" y="-270.3" font-family="Times,serif" font-size="14.00">sold_out :integer</text>
<text text-anchor="start" x="131.114" y="-256.3" font-family="Times,serif" font-size="14.00">dimension_width :string</text>
<text text-anchor="start" x="131.114" y="-242.3" font-family="Times,serif" font-size="14.00">dimension_height :string</text>
<text text-anchor="start" x="131.114" y="-228.3" font-family="Times,serif" font-size="14.00">dimension_depth :string</text>
<text text-anchor="start" x="131.114" y="-214.3" font-family="Times,serif" font-size="14.00">dimension_weight :string</text>
<text text-anchor="start" x="131.114" y="-200.3" font-family="Times,serif" font-size="14.00">main_category :integer</text>
<text text-anchor="start" x="131.114" y="-186.3" font-family="Times,serif" font-size="14.00">tax_id :integer</text>
</g>
<!-- Category&#45;&gt;Product -->
<g id="edge3" class="edge"><title>Category&#45;&gt;Product</title>
<path fill="none" stroke="#adc4d3" d="M159.34,-768.1C166.241,-708.122 177.245,-612.491 186.994,-527.765"/>
<polygon fill="#adc4d3" stroke="#adc4d3" points="159.327,-768.212 153.714,-777.632 158.756,-773.179 158.184,-778.146 158.184,-778.146 158.184,-778.146 158.756,-773.179 162.655,-778.66 159.327,-768.212 159.327,-768.212"/>
<polygon fill="#adc4d3" stroke="#adc4d3" points="187.002,-527.69 192.616,-518.27 187.574,-522.723 188.145,-517.756 188.145,-517.756 188.145,-517.756 187.574,-522.723 183.675,-517.241 187.002,-527.69 187.002,-527.69"/>
</g>
<!-- ProductCategory -->
<g id="node12" class="node"><title>ProductCategory</title>
<path fill="none" stroke="black" d="M12,-14.5C12,-14.5 121.011,-14.5 121.011,-14.5 127.011,-14.5 133.011,-20.5 133.011,-26.5 133.011,-26.5 133.011,-102.5 133.011,-102.5 133.011,-108.5 127.011,-114.5 121.011,-114.5 121.011,-114.5 12,-114.5 12,-114.5 6,-114.5 0,-108.5 0,-102.5 0,-102.5 0,-26.5 0,-26.5 0,-20.5 6,-14.5 12,-14.5"/>
<text text-anchor="middle" x="66.5054" y="-99.3" font-family="Times,serif" font-size="14.00">ProductCategory</text>
<polyline fill="none" stroke="black" points="0,-92.5 133.011,-92.5 "/>
<text text-anchor="start" x="8" y="-77.3" font-family="Times,serif" font-size="14.00">id :integer</text>
<text text-anchor="start" x="8" y="-63.3" font-family="Times,serif" font-size="14.00">product_id :integer</text>
<text text-anchor="start" x="8" y="-49.3" font-family="Times,serif" font-size="14.00">category_id :integer</text>
<text text-anchor="start" x="8" y="-35.3" font-family="Times,serif" font-size="14.00">created_at :datetime</text>
<text text-anchor="start" x="8" y="-21.3" font-family="Times,serif" font-size="14.00">updated_at :datetime</text>
</g>
<!-- Category&#45;&gt;ProductCategory -->
<g id="edge4" class="edge"><title>Category&#45;&gt;ProductCategory</title>
<path fill="none" stroke="#87068e" d="M145.204,-770.367C137.338,-708.283 124.591,-606.149 114.505,-518 98.3893,-377.15 81.2808,-211.414 72.4907,-124.895"/>
<ellipse fill="none" stroke="#87068e" cx="145.73" cy="-774.514" rx="4.00001" ry="4.00001"/>
<polygon fill="#87068e" stroke="#87068e" points="72.4702,-124.693 75.9376,-114.289 71.9654,-119.718 71.4606,-114.744 71.4606,-114.744 71.4606,-114.744 71.9654,-119.718 66.9836,-115.198 72.4702,-124.693 72.4702,-124.693"/>
</g>
<!-- Certificate -->
<g id="node8" class="node"><title>Certificate</title>
<path fill="none" stroke="black" d="M487,-284.5C487,-284.5 596.011,-284.5 596.011,-284.5 602.011,-284.5 608.011,-290.5 608.011,-296.5 608.011,-296.5 608.011,-400.5 608.011,-400.5 608.011,-406.5 602.011,-412.5 596.011,-412.5 596.011,-412.5 487,-412.5 487,-412.5 481,-412.5 475,-406.5 475,-400.5 475,-400.5 475,-296.5 475,-296.5 475,-290.5 481,-284.5 487,-284.5"/>
<text text-anchor="middle" x="541.505" y="-397.3" font-family="Times,serif" font-size="14.00">Certificate</text>
<polyline fill="none" stroke="black" points="475,-390.5 608.011,-390.5 "/>
<text text-anchor="start" x="483" y="-375.3" font-family="Times,serif" font-size="14.00">id :integer</text>
<text text-anchor="start" x="483" y="-361.3" font-family="Times,serif" font-size="14.00">filename :string</text>
<text text-anchor="start" x="483" y="-347.3" font-family="Times,serif" font-size="14.00">content_type :string</text>
<text text-anchor="start" x="483" y="-333.3" font-family="Times,serif" font-size="14.00">data :binary</text>
<text text-anchor="start" x="483" y="-319.3" font-family="Times,serif" font-size="14.00">user_id :integer</text>
<text text-anchor="start" x="483" y="-305.3" font-family="Times,serif" font-size="14.00">created_at :datetime</text>
<text text-anchor="start" x="483" y="-291.3" font-family="Times,serif" font-size="14.00">updated_at :datetime</text>
</g>
<!-- Image -->
<g id="node9" class="node"><title>Image</title>
<path fill="none" stroke="black" d="M163.107,-0.5C163.107,-0.5 307.904,-0.5 307.904,-0.5 313.904,-0.5 319.904,-6.5 319.904,-12.5 319.904,-12.5 319.904,-116.5 319.904,-116.5 319.904,-122.5 313.904,-128.5 307.904,-128.5 307.904,-128.5 163.107,-128.5 163.107,-128.5 157.107,-128.5 151.107,-122.5 151.107,-116.5 151.107,-116.5 151.107,-12.5 151.107,-12.5 151.107,-6.5 157.107,-0.5 163.107,-0.5"/>
<text text-anchor="middle" x="235.505" y="-113.3" font-family="Times,serif" font-size="14.00">Image</text>
<polyline fill="none" stroke="black" points="151.107,-106.5 319.904,-106.5 "/>
<text text-anchor="start" x="159.107" y="-91.3" font-family="Times,serif" font-size="14.00">id :integer</text>
<text text-anchor="start" x="159.107" y="-77.3" font-family="Times,serif" font-size="14.00">product_id :integer</text>
<text text-anchor="start" x="159.107" y="-63.3" font-family="Times,serif" font-size="14.00">image_file_name :string</text>
<text text-anchor="start" x="159.107" y="-49.3" font-family="Times,serif" font-size="14.00">image_file_size :string</text>
<text text-anchor="start" x="159.107" y="-35.3" font-family="Times,serif" font-size="14.00">image_content_type :string</text>
<text text-anchor="start" x="159.107" y="-21.3" font-family="Times,serif" font-size="14.00">created_at :datetime</text>
<text text-anchor="start" x="159.107" y="-7.3" font-family="Times,serif" font-size="14.00">updated_at :datetime</text>
</g>
<!-- Pricebreak -->
<g id="node10" class="node"><title>Pricebreak</title>
<path fill="none" stroke="black" d="M350,-7.5C350,-7.5 459.011,-7.5 459.011,-7.5 465.011,-7.5 471.011,-13.5 471.011,-19.5 471.011,-19.5 471.011,-109.5 471.011,-109.5 471.011,-115.5 465.011,-121.5 459.011,-121.5 459.011,-121.5 350,-121.5 350,-121.5 344,-121.5 338,-115.5 338,-109.5 338,-109.5 338,-19.5 338,-19.5 338,-13.5 344,-7.5 350,-7.5"/>
<text text-anchor="middle" x="404.505" y="-106.3" font-family="Times,serif" font-size="14.00">Pricebreak</text>
<polyline fill="none" stroke="black" points="338,-99.5 471.011,-99.5 "/>
<text text-anchor="start" x="346" y="-84.3" font-family="Times,serif" font-size="14.00">id :integer</text>
<text text-anchor="start" x="346" y="-70.3" font-family="Times,serif" font-size="14.00">quantity :integer</text>
<text text-anchor="start" x="346" y="-56.3" font-family="Times,serif" font-size="14.00">price :float</text>
<text text-anchor="start" x="346" y="-42.3" font-family="Times,serif" font-size="14.00">product_id :integer</text>
<text text-anchor="start" x="346" y="-28.3" font-family="Times,serif" font-size="14.00">created_at :datetime</text>
<text text-anchor="start" x="346" y="-14.3" font-family="Times,serif" font-size="14.00">updated_at :datetime</text>
</g>
<!-- Product&#45;&gt;Image -->
<g id="edge7" class="edge"><title>Product&#45;&gt;Image</title>
<path fill="none" stroke="#07ee66" d="M225.027,-171.032C226.14,-159.826 227.221,-148.939 228.239,-138.681"/>
<ellipse fill="none" stroke="#07ee66" cx="224.593" cy="-175.407" rx="4" ry="4"/>
<polygon fill="#07ee66" stroke="#07ee66" points="228.248,-138.595 233.714,-129.088 228.742,-133.619 229.236,-128.644 229.236,-128.644 229.236,-128.644 228.742,-133.619 224.758,-128.199 228.248,-138.595 228.248,-138.595"/>
</g>
<!-- Product&#45;&gt;Pricebreak -->
<g id="edge8" class="edge"><title>Product&#45;&gt;Pricebreak</title>
<path fill="none" stroke="#d01d7a" d="M296.689,-185.82C298.287,-183.519 299.893,-181.245 301.505,-179 313.645,-162.099 327.98,-144.932 342.036,-129.239"/>
<ellipse fill="none" stroke="#d01d7a" cx="294.176" cy="-189.495" rx="4.00002" ry="4.00002"/>
<polygon fill="#d01d7a" stroke="#d01d7a" points="342.188,-129.072 352.237,-124.683 345.545,-125.366 348.902,-121.661 348.902,-121.661 348.902,-121.661 345.545,-125.366 345.568,-118.64 342.188,-129.072 342.188,-129.072"/>
</g>
<!-- Product&#45;&gt;ProductCategory -->
<g id="edge6" class="edge"><title>Product&#45;&gt;ProductCategory</title>
<path fill="none" stroke="#b1ae7f" d="M119.736,-171.962C111.174,-154.836 102.973,-138.436 95.6838,-123.857"/>
<ellipse fill="none" stroke="#b1ae7f" cx="121.66" cy="-175.81" rx="4.00002" ry="4.00002"/>
<polygon fill="#b1ae7f" stroke="#b1ae7f" points="95.5026,-123.494 95.0554,-112.538 93.2665,-119.022 91.0305,-114.55 91.0305,-114.55 91.0305,-114.55 93.2665,-119.022 87.0055,-116.563 95.5026,-123.494 95.5026,-123.494"/>
</g>
<!-- Product&#45;&gt;PaperTrail::Version -->
<g id="edge5" class="edge"><title>Product&#45;&gt;PaperTrail::Version</title>
<path fill="none" stroke="#7eed68" d="M298.49,-181.264C299.485,-180.495 300.491,-179.74 301.505,-179 340.88,-150.275 648.092,-99.3705 791.819,-76.8077"/>
<ellipse fill="none" stroke="#7eed68" cx="295.15" cy="-183.998" rx="4.00002" ry="4.00002"/>
<polygon fill="#7eed68" stroke="#7eed68" points="792,-76.7795 802.575,-79.6787 796.939,-76.0062 801.879,-75.2328 801.879,-75.2328 801.879,-75.2328 796.939,-76.0062 801.183,-70.787 792,-76.7795 792,-76.7795"/>
<text text-anchor="middle" x="415.836" y="-149.8" font-family="Times,serif" font-size="14.00">versions</text>
</g>
<!-- Request -->
<g id="node13" class="node"><title>Request</title>
<path fill="none" stroke="black" d="M637.61,-277.5C637.61,-277.5 747.4,-277.5 747.4,-277.5 753.4,-277.5 759.4,-283.5 759.4,-289.5 759.4,-289.5 759.4,-407.5 759.4,-407.5 759.4,-413.5 753.4,-419.5 747.4,-419.5 747.4,-419.5 637.61,-419.5 637.61,-419.5 631.61,-419.5 625.61,-413.5 625.61,-407.5 625.61,-407.5 625.61,-289.5 625.61,-289.5 625.61,-283.5 631.61,-277.5 637.61,-277.5"/>
<text text-anchor="middle" x="692.505" y="-404.3" font-family="Times,serif" font-size="14.00">Request</text>
<polyline fill="none" stroke="black" points="625.61,-397.5 759.4,-397.5 "/>
<text text-anchor="start" x="633.61" y="-382.3" font-family="Times,serif" font-size="14.00">id :integer</text>
<text text-anchor="start" x="633.61" y="-368.3" font-family="Times,serif" font-size="14.00">sender_id :integer</text>
<text text-anchor="start" x="633.61" y="-354.3" font-family="Times,serif" font-size="14.00">receiver_id :integer</text>
<text text-anchor="start" x="633.61" y="-340.3" font-family="Times,serif" font-size="14.00">subject :string</text>
<text text-anchor="start" x="633.61" y="-326.3" font-family="Times,serif" font-size="14.00">body :text</text>
<text text-anchor="start" x="633.61" y="-312.3" font-family="Times,serif" font-size="14.00">created_at :datetime</text>
<text text-anchor="start" x="633.61" y="-298.3" font-family="Times,serif" font-size="14.00">updated_at :datetime</text>
<text text-anchor="start" x="633.61" y="-284.3" font-family="Times,serif" font-size="14.00">conversation :integer</text>
</g>
<!-- Role -->
<g id="node14" class="node"><title>Role</title>
<path fill="none" stroke="black" d="M593.607,-1238.5C593.607,-1238.5 703.404,-1238.5 703.404,-1238.5 709.404,-1238.5 715.404,-1244.5 715.404,-1250.5 715.404,-1250.5 715.404,-1340.5 715.404,-1340.5 715.404,-1346.5 709.404,-1352.5 703.404,-1352.5 703.404,-1352.5 593.607,-1352.5 593.607,-1352.5 587.607,-1352.5 581.607,-1346.5 581.607,-1340.5 581.607,-1340.5 581.607,-1250.5 581.607,-1250.5 581.607,-1244.5 587.607,-1238.5 593.607,-1238.5"/>
<text text-anchor="middle" x="648.505" y="-1337.3" font-family="Times,serif" font-size="14.00">Role</text>
<polyline fill="none" stroke="black" points="581.607,-1330.5 715.404,-1330.5 "/>
<text text-anchor="start" x="589.607" y="-1315.3" font-family="Times,serif" font-size="14.00">id :integer</text>
<text text-anchor="start" x="589.607" y="-1301.3" font-family="Times,serif" font-size="14.00">name :string</text>
<text text-anchor="start" x="589.607" y="-1287.3" font-family="Times,serif" font-size="14.00">resource_id :integer</text>
<text text-anchor="start" x="589.607" y="-1273.3" font-family="Times,serif" font-size="14.00">resource_type :string</text>
<text text-anchor="start" x="589.607" y="-1259.3" font-family="Times,serif" font-size="14.00">created_at :datetime</text>
<text text-anchor="start" x="589.607" y="-1245.3" font-family="Times,serif" font-size="14.00">updated_at :datetime</text>
</g>
<!-- User -->
<g id="node16" class="node"><title>User</title>
<path fill="none" stroke="black" d="M558.228,-568.5C558.228,-568.5 738.783,-568.5 738.783,-568.5 744.783,-568.5 750.783,-574.5 750.783,-580.5 750.783,-580.5 750.783,-1076.5 750.783,-1076.5 750.783,-1082.5 744.783,-1088.5 738.783,-1088.5 738.783,-1088.5 558.228,-1088.5 558.228,-1088.5 552.228,-1088.5 546.228,-1082.5 546.228,-1076.5 546.228,-1076.5 546.228,-580.5 546.228,-580.5 546.228,-574.5 552.228,-568.5 558.228,-568.5"/>
<text text-anchor="middle" x="648.505" y="-1073.3" font-family="Times,serif" font-size="14.00">User</text>
<polyline fill="none" stroke="black" points="546.228,-1066.5 750.783,-1066.5 "/>
<text text-anchor="start" x="554.228" y="-1051.3" font-family="Times,serif" font-size="14.00">id :integer</text>
<text text-anchor="start" x="554.228" y="-1037.3" font-family="Times,serif" font-size="14.00">email :string</text>
<text text-anchor="start" x="554.228" y="-1023.3" font-family="Times,serif" font-size="14.00">encrypted_password :string</text>
<text text-anchor="start" x="554.228" y="-1009.3" font-family="Times,serif" font-size="14.00">reset_password_token :string</text>
<text text-anchor="start" x="554.228" y="-995.3" font-family="Times,serif" font-size="14.00">reset_password_sent_at :datetime</text>
<text text-anchor="start" x="554.228" y="-981.3" font-family="Times,serif" font-size="14.00">remember_created_at :datetime</text>
<text text-anchor="start" x="554.228" y="-967.3" font-family="Times,serif" font-size="14.00">sign_in_count :integer</text>
<text text-anchor="start" x="554.228" y="-953.3" font-family="Times,serif" font-size="14.00">current_sign_in_at :datetime</text>
<text text-anchor="start" x="554.228" y="-939.3" font-family="Times,serif" font-size="14.00">last_sign_in_at :datetime</text>
<text text-anchor="start" x="554.228" y="-925.3" font-family="Times,serif" font-size="14.00">current_sign_in_ip :string</text>
<text text-anchor="start" x="554.228" y="-911.3" font-family="Times,serif" font-size="14.00">last_sign_in_ip :string</text>
<text text-anchor="start" x="554.228" y="-897.3" font-family="Times,serif" font-size="14.00">confirmation_token :string</text>
<text text-anchor="start" x="554.228" y="-883.3" font-family="Times,serif" font-size="14.00">confirmed_at :datetime</text>
<text text-anchor="start" x="554.228" y="-869.3" font-family="Times,serif" font-size="14.00">confirmation_sent_at :datetime</text>
<text text-anchor="start" x="554.228" y="-855.3" font-family="Times,serif" font-size="14.00">unconfirmed_email :string</text>
<text text-anchor="start" x="554.228" y="-841.3" font-family="Times,serif" font-size="14.00">name :string</text>
<text text-anchor="start" x="554.228" y="-827.3" font-family="Times,serif" font-size="14.00">phone :string</text>
<text text-anchor="start" x="554.228" y="-813.3" font-family="Times,serif" font-size="14.00">company :string</text>
<text text-anchor="start" x="554.228" y="-799.3" font-family="Times,serif" font-size="14.00">location :string</text>
<text text-anchor="start" x="554.228" y="-785.3" font-family="Times,serif" font-size="14.00">zip_code :string</text>
<text text-anchor="start" x="554.228" y="-771.3" font-family="Times,serif" font-size="14.00">city :string</text>
<text text-anchor="start" x="554.228" y="-757.3" font-family="Times,serif" font-size="14.00">state :string</text>
<text text-anchor="start" x="554.228" y="-743.3" font-family="Times,serif" font-size="14.00">country :string</text>
<text text-anchor="start" x="554.228" y="-729.3" font-family="Times,serif" font-size="14.00">facebook :string</text>
<text text-anchor="start" x="554.228" y="-715.3" font-family="Times,serif" font-size="14.00">ein_tax :string</text>
<text text-anchor="start" x="554.228" y="-701.3" font-family="Times,serif" font-size="14.00">receive_private_info :boolean</text>
<text text-anchor="start" x="554.228" y="-687.3" font-family="Times,serif" font-size="14.00">receive_new_offer :boolean</text>
<text text-anchor="start" x="554.228" y="-673.3" font-family="Times,serif" font-size="14.00">receive_tips :boolean</text>
<text text-anchor="start" x="554.228" y="-659.3" font-family="Times,serif" font-size="14.00">asset_file_name :string</text>
<text text-anchor="start" x="554.228" y="-645.3" font-family="Times,serif" font-size="14.00">asset_file_size :string</text>
<text text-anchor="start" x="554.228" y="-631.3" font-family="Times,serif" font-size="14.00">asset_content_type :string</text>
<text text-anchor="start" x="554.228" y="-617.3" font-family="Times,serif" font-size="14.00">created_at :datetime</text>
<text text-anchor="start" x="554.228" y="-603.3" font-family="Times,serif" font-size="14.00">updated_at :datetime</text>
<text text-anchor="start" x="554.228" y="-589.3" font-family="Times,serif" font-size="14.00">benefits :text</text>
<text text-anchor="start" x="554.228" y="-575.3" font-family="Times,serif" font-size="14.00">is_reseller :boolean</text>
</g>
<!-- Role&#45;&gt;User -->
<g id="edge9" class="edge"><title>Role&#45;&gt;User</title>
<path fill="none" stroke="#eb9e59" d="M648.505,-1228.09C648.505,-1192.82 648.505,-1146.88 648.505,-1098.79"/>
<polygon fill="#eb9e59" stroke="#eb9e59" points="648.505,-1228.41 644.005,-1238.41 648.505,-1233.41 648.505,-1238.41 648.505,-1238.41 648.505,-1238.41 648.505,-1233.41 653.005,-1238.41 648.505,-1228.41 648.505,-1228.41"/>
<polygon fill="#eb9e59" stroke="#eb9e59" points="648.505,-1098.5 653.005,-1088.5 648.505,-1093.5 648.505,-1088.5 648.505,-1088.5 648.505,-1088.5 648.505,-1093.5 644.005,-1088.5 648.505,-1098.5 648.505,-1098.5"/>
</g>
<!-- Tax -->
<g id="node15" class="node"><title>Tax</title>
<path fill="none" stroke="black" d="M1107,-1245.5C1107,-1245.5 1216.01,-1245.5 1216.01,-1245.5 1222.01,-1245.5 1228.01,-1251.5 1228.01,-1257.5 1228.01,-1257.5 1228.01,-1333.5 1228.01,-1333.5 1228.01,-1339.5 1222.01,-1345.5 1216.01,-1345.5 1216.01,-1345.5 1107,-1345.5 1107,-1345.5 1101,-1345.5 1095,-1339.5 1095,-1333.5 1095,-1333.5 1095,-1257.5 1095,-1257.5 1095,-1251.5 1101,-1245.5 1107,-1245.5"/>
<text text-anchor="middle" x="1161.51" y="-1330.3" font-family="Times,serif" font-size="14.00">Tax</text>
<polyline fill="none" stroke="black" points="1095,-1323.5 1228.01,-1323.5 "/>
<text text-anchor="start" x="1103" y="-1308.3" font-family="Times,serif" font-size="14.00">id :integer</text>
<text text-anchor="start" x="1103" y="-1294.3" font-family="Times,serif" font-size="14.00">name :string</text>
<text text-anchor="start" x="1103" y="-1280.3" font-family="Times,serif" font-size="14.00">value :decimal</text>
<text text-anchor="start" x="1103" y="-1266.3" font-family="Times,serif" font-size="14.00">created_at :datetime</text>
<text text-anchor="start" x="1103" y="-1252.3" font-family="Times,serif" font-size="14.00">updated_at :datetime</text>
</g>
<!-- User&#45;&gt;ArmorBankAccount -->
<g id="edge17" class="edge"><title>User&#45;&gt;ArmorBankAccount</title>
<path fill="none" stroke="#7fa05f" d="M758.025,-778.309C863.945,-726.227 1023.44,-635.341 1128.51,-518 1146.76,-497.609 1162.06,-472.531 1174.39,-448.012"/>
<ellipse fill="none" stroke="#7fa05f" cx="754.404" cy="-780.08" rx="4.00002" ry="4.00002"/>
<ellipse fill="#7fa05f" stroke="#7fa05f" cx="1176.19" cy="-444.362" rx="4.00002" ry="4.00002"/>
</g>
<!-- User&#45;&gt;ArmorProfile -->
<g id="edge16" class="edge"><title>User&#45;&gt;ArmorProfile</title>
<path fill="none" stroke="#218ffa" d="M541.918,-652.874C516.199,-609.22 489.291,-562.226 465.505,-518 447.173,-483.914 428.172,-445.121 413.081,-413.356"/>
<ellipse fill="none" stroke="#218ffa" cx="544.002" cy="-656.405" rx="4.00002" ry="4.00002"/>
<ellipse fill="#218ffa" stroke="#218ffa" cx="411.242" cy="-409.473" rx="4.00002" ry="4.00002"/>
</g>
<!-- User&#45;&gt;Certificate -->
<g id="edge15" class="edge"><title>User&#45;&gt;Certificate</title>
<path fill="none" stroke="#dc9040" d="M574.819,-560.652C574.031,-557.082 573.259,-553.53 572.505,-550 563.407,-507.39 555.864,-459.144 550.496,-420.658"/>
<ellipse fill="none" stroke="#dc9040" cx="575.698" cy="-564.59" rx="4.00001" ry="4.00001"/>
<ellipse fill="#dc9040" stroke="#dc9040" cx="549.931" cy="-416.562" rx="4.00001" ry="4.00001"/>
</g>
<!-- User&#45;&gt;Product -->
<g id="edge12" class="edge"><title>User&#45;&gt;Product</title>
<path fill="none" stroke="#b4487a" d="M539.449,-746.05C466.346,-687.878 371.095,-604.824 301.505,-518 300.389,-516.607 299.279,-515.2 298.174,-513.778"/>
<ellipse fill="none" stroke="#b4487a" cx="542.871" cy="-748.764" rx="4.00002" ry="4.00002"/>
<polygon fill="#b4487a" stroke="#b4487a" points="297.944,-513.473 295.506,-502.782 294.93,-509.484 291.916,-505.495 291.916,-505.495 291.916,-505.495 294.93,-509.484 288.325,-508.207 297.944,-513.473 297.944,-513.473"/>
</g>
<!-- User&#45;&gt;Request -->
<g id="edge13" class="edge"><title>User&#45;&gt;Request</title>
<path fill="none" stroke="#9ecc95" d="M571.954,-560.565C574.877,-552.121 578.664,-543.905 583.429,-536 592.271,-521.33 605.808,-530.511 617.505,-518 640.891,-492.988 657.826,-459.47 669.619,-428.916"/>
<ellipse fill="none" stroke="#9ecc95" cx="570.703" cy="-564.564" rx="4.00001" ry="4.00001"/>
<polygon fill="#9ecc95" stroke="#9ecc95" points="669.621,-428.912 677.332,-421.115 671.368,-424.227 673.115,-419.542 673.115,-419.542 673.115,-419.542 671.368,-424.227 668.899,-417.97 669.621,-428.912 669.621,-428.912"/>
<text text-anchor="middle" x="637.543" y="-538.8" font-family="Times,serif" font-size="14.00">requests_of_sender</text>
</g>
<!-- User&#45;&gt;Request -->
<g id="edge14" class="edge"><title>User&#45;&gt;Request</title>
<path fill="none" stroke="#525bf0" d="M690.639,-560.312C690.944,-556.856 691.234,-553.417 691.505,-550 694.646,-510.511 695.192,-466.51 694.829,-429.811"/>
<ellipse fill="none" stroke="#525bf0" cx="690.262" cy="-564.425" rx="4" ry="4"/>
<polygon fill="#525bf0" stroke="#525bf0" points="694.828,-429.663 699.204,-419.608 694.766,-424.663 694.704,-419.664 694.704,-419.664 694.704,-419.664 694.766,-424.663 690.205,-419.719 694.828,-429.663 694.828,-429.663"/>
<text text-anchor="middle" x="750.809" y="-538.8" font-family="Times,serif" font-size="14.00">requests_of_receiver</text>
</g>
<!-- Mailboxer::Message -->
<g id="node18" class="node"><title>Mailboxer::Message</title>
<ellipse fill="none" stroke="black" cx="860.505" cy="-348.5" rx="82.6045" ry="18"/>
<text text-anchor="middle" x="860.505" y="-344.3" font-family="Times,serif" font-size="14.00">Mailboxer::Message</text>
</g>
<!-- User&#45;&gt;Mailboxer::Message -->
<g id="edge10" class="edge"><title>User&#45;&gt;Mailboxer::Message</title>
<path fill="none" stroke="#11a80b" d="M754.866,-667.472C776.547,-630.033 797.569,-589.516 813.505,-550 837.463,-490.596 850.907,-416.14 856.819,-376.794"/>
<ellipse fill="none" stroke="#11a80b" cx="752.826" cy="-670.97" rx="4.00002" ry="4.00002"/>
<polygon fill="#11a80b" stroke="#11a80b" points="856.852,-376.565 862.743,-367.316 857.571,-371.617 858.289,-366.669 858.289,-366.669 858.289,-366.669 857.571,-371.617 853.836,-366.022 856.852,-376.565 856.852,-376.565"/>
<text text-anchor="middle" x="844.943" y="-538.8" font-family="Times,serif" font-size="14.00">messages</text>
</g>
<!-- Mailboxer::Receipt -->
<g id="node19" class="node"><title>Mailboxer::Receipt</title>
<ellipse fill="none" stroke="black" cx="1040.51" cy="-348.5" rx="78.7367" ry="18"/>
<text text-anchor="middle" x="1040.51" y="-344.3" font-family="Times,serif" font-size="14.00">Mailboxer::Receipt</text>
</g>
<!-- User&#45;&gt;Mailboxer::Receipt -->
<g id="edge11" class="edge"><title>User&#45;&gt;Mailboxer::Receipt</title>
<path fill="none" stroke="#79c646" d="M756.753,-732.365C818.794,-674.358 895.423,-596.477 952.505,-518 986.253,-471.604 1014.75,-410.52 1029.56,-376.09"/>
<ellipse fill="none" stroke="#79c646" cx="753.722" cy="-735.189" rx="4.00002" ry="4.00002"/>
<polygon fill="#79c646" stroke="#79c646" points="1029.63,-375.919 1037.68,-368.471 1031.58,-371.316 1033.54,-366.713 1033.54,-366.713 1033.54,-366.713 1031.58,-371.316 1029.4,-364.956 1029.63,-375.919 1029.63,-375.919"/>
<text text-anchor="middle" x="960.271" y="-538.8" font-family="Times,serif" font-size="14.00">receipts</text>
</g>
</g>
</svg>
