<?xml version="1.0" encoding="UTF-8" standalone="no"?>
<!DOCTYPE svg PUBLIC "-//W3C//DTD SVG 1.1//EN"
 "http://www.w3.org/Graphics/SVG/1.1/DTD/svg11.dtd">
<!-- Generated by graphviz version 2.38.0 (20140413.2041)
 -->
<!-- Title: controllers_diagram Pages: 1 -->
<svg width="1161pt" height="1139pt"
 viewBox="0.00 0.00 1160.64 1139.00" xmlns="http://www.w3.org/2000/svg" xmlns:xlink="http://www.w3.org/1999/xlink">
<g id="graph0" class="graph" transform="scale(1 1) rotate(0) translate(490.49 613.5)">
<title>controllers_diagram</title>
<polygon fill="white" stroke="none" points="-490.49,525.5 -490.49,-613.5 670.148,-613.5 670.148,525.5 -490.49,525.5"/>
<!-- _diagram_info -->
<g id="node1" class="node"><title>_diagram_info</title>
<text text-anchor="start" x="-405.688" y="354.9" font-family="Times,serif" font-size="13.00">Controllers diagram</text>
<text text-anchor="start" x="-405.688" y="367.9" font-family="Times,serif" font-size="13.00">Date: Mar 27 2015 &#45; 14:47</text>
<text text-anchor="start" x="-405.688" y="380.9" font-family="Times,serif" font-size="13.00">Migration version: 20150325165059</text>
<text text-anchor="start" x="-405.688" y="393.9" font-family="Times,serif" font-size="13.00">Generated by RailRoady 1.3.0</text>
<text text-anchor="start" x="-405.688" y="406.9" font-family="Times,serif" font-size="13.00">http://railroady.prestonlee.com</text>
</g>
<!-- Admin::ApplicationController -->
<g id="node2" class="node"><title>Admin::ApplicationController</title>
<path fill="none" stroke="black" d="M101.845,-361C101.845,-361 264.155,-361 264.155,-361 270.155,-361 276.155,-367 276.155,-373 276.155,-373 276.155,-455 276.155,-455 276.155,-461 270.155,-467 264.155,-467 264.155,-467 101.845,-467 101.845,-467 95.8447,-467 89.8447,-461 89.8447,-455 89.8447,-455 89.8447,-373 89.8447,-373 89.8447,-367 95.8447,-361 101.845,-361"/>
<text text-anchor="middle" x="183" y="-451.8" font-family="Times,serif" font-size="14.00">Admin::ApplicationController</text>
<polyline fill="none" stroke="black" points="89.8447,-445 276.155,-445 "/>
<polyline fill="none" stroke="black" points="89.8447,-421 276.155,-421 "/>
<polyline fill="none" stroke="black" points="89.8447,-397 276.155,-397 "/>
<text text-anchor="start" x="97.8447" y="-381.8" font-family="Times,serif" font-size="14.00">_layout</text>
<text text-anchor="start" x="97.8447" y="-367.8" font-family="Times,serif" font-size="14.00">allow_admin_resources</text>
</g>
<!-- Admin::CategoriesController -->
<g id="node3" class="node"><title>Admin::CategoriesController</title>
<path fill="none" stroke="black" d="M-78.0415,-145C-78.0415,-145 78.0415,-145 78.0415,-145 84.0415,-145 90.0415,-151 90.0415,-157 90.0415,-157 90.0415,-321 90.0415,-321 90.0415,-327 84.0415,-333 78.0415,-333 78.0415,-333 -78.0415,-333 -78.0415,-333 -84.0415,-333 -90.0415,-327 -90.0415,-321 -90.0415,-321 -90.0415,-157 -90.0415,-157 -90.0415,-151 -84.0415,-145 -78.0415,-145"/>
<text text-anchor="middle" x="0" y="-317.8" font-family="Times,serif" font-size="14.00">Admin::CategoriesController</text>
<polyline fill="none" stroke="black" points="-90.0415,-311 90.0415,-311 "/>
<text text-anchor="start" x="-82.0415" y="-295.8" font-family="Times,serif" font-size="14.00">create</text>
<text text-anchor="start" x="-82.0415" y="-281.8" font-family="Times,serif" font-size="14.00">destroy</text>
<text text-anchor="start" x="-82.0415" y="-267.8" font-family="Times,serif" font-size="14.00">edit</text>
<text text-anchor="start" x="-82.0415" y="-253.8" font-family="Times,serif" font-size="14.00">index</text>
<text text-anchor="start" x="-82.0415" y="-239.8" font-family="Times,serif" font-size="14.00">new</text>
<text text-anchor="start" x="-82.0415" y="-225.8" font-family="Times,serif" font-size="14.00">update</text>
<polyline fill="none" stroke="black" points="-90.0415,-219 90.0415,-219 "/>
<polyline fill="none" stroke="black" points="-90.0415,-195 90.0415,-195 "/>
<text text-anchor="start" x="-82.0415" y="-179.8" font-family="Times,serif" font-size="14.00">_layout</text>
<text text-anchor="start" x="-82.0415" y="-165.8" font-family="Times,serif" font-size="14.00">category_params</text>
<text text-anchor="start" x="-82.0415" y="-151.8" font-family="Times,serif" font-size="14.00">set_category</text>
</g>
<!-- Admin::ConfirmationsController -->
<g id="node4" class="node"><title>Admin::ConfirmationsController</title>
<path fill="none" stroke="black" d="M371.834,35C371.834,35 548.166,35 548.166,35 554.166,35 560.166,29 560.166,23 560.166,23 560.166,-43 560.166,-43 560.166,-49 554.166,-55 548.166,-55 548.166,-55 371.834,-55 371.834,-55 365.834,-55 359.834,-49 359.834,-43 359.834,-43 359.834,23 359.834,23 359.834,29 365.834,35 371.834,35"/>
<text text-anchor="middle" x="460" y="-39.8" font-family="Times,serif" font-size="14.00">Admin::ConfirmationsController</text>
<polyline fill="none" stroke="black" points="359.834,-33 560.166,-33 "/>
<text text-anchor="start" x="367.834" y="-17.8" font-family="Times,serif" font-size="14.00">show</text>
<polyline fill="none" stroke="black" points="359.834,-11 560.166,-11 "/>
<polyline fill="none" stroke="black" points="359.834,13 560.166,13 "/>
<text text-anchor="start" x="367.834" y="28.2" font-family="Times,serif" font-size="14.00">_layout</text>
</g>
<!-- Admin::ImportersController -->
<g id="node5" class="node"><title>Admin::ImportersController</title>
<path fill="none" stroke="black" d="M-168.321,449C-168.321,449 -17.6792,449 -17.6792,449 -11.6792,449 -5.6792,443 -5.6792,437 -5.6792,437 -5.6792,357 -5.6792,357 -5.6792,351 -11.6792,345 -17.6792,345 -17.6792,345 -168.321,345 -168.321,345 -174.321,345 -180.321,351 -180.321,357 -180.321,357 -180.321,437 -180.321,437 -180.321,443 -174.321,449 -168.321,449"/>
<text text-anchor="middle" x="-93" y="360.2" font-family="Times,serif" font-size="14.00">Admin::ImportersController</text>
<polyline fill="none" stroke="black" points="-180.321,367 -5.6792,367 "/>
<text text-anchor="start" x="-172.321" y="382.2" font-family="Times,serif" font-size="14.00">create</text>
<text text-anchor="start" x="-172.321" y="396.2" font-family="Times,serif" font-size="14.00">index</text>
<polyline fill="none" stroke="black" points="-180.321,403 -5.6792,403 "/>
<polyline fill="none" stroke="black" points="-180.321,427 -5.6792,427 "/>
<text text-anchor="start" x="-172.321" y="442.2" font-family="Times,serif" font-size="14.00">_layout</text>
</g>
<!-- Admin::MailersController -->
<g id="node6" class="node"><title>Admin::MailersController</title>
<path fill="none" stroke="black" d="M-474.49,89C-474.49,89 -335.51,89 -335.51,89 -329.51,89 -323.51,83 -323.51,77 -323.51,77 -323.51,-17 -323.51,-17 -323.51,-23 -329.51,-29 -335.51,-29 -335.51,-29 -474.49,-29 -474.49,-29 -480.49,-29 -486.49,-23 -486.49,-17 -486.49,-17 -486.49,77 -486.49,77 -486.49,83 -480.49,89 -474.49,89"/>
<text text-anchor="middle" x="-405" y="-13.8" font-family="Times,serif" font-size="14.00">Admin::MailersController</text>
<polyline fill="none" stroke="black" points="-486.49,-7 -323.51,-7 "/>
<text text-anchor="start" x="-478.49" y="8.2" font-family="Times,serif" font-size="14.00">index</text>
<text text-anchor="start" x="-478.49" y="22.2" font-family="Times,serif" font-size="14.00">services</text>
<polyline fill="none" stroke="black" points="-486.49,29 -323.51,29 "/>
<polyline fill="none" stroke="black" points="-486.49,53 -323.51,53 "/>
<text text-anchor="start" x="-478.49" y="68.2" font-family="Times,serif" font-size="14.00">_layout</text>
<text text-anchor="start" x="-478.49" y="82.2" font-family="Times,serif" font-size="14.00">mailer_params</text>
</g>
<!-- Admin::ProductsController -->
<g id="node7" class="node"><title>Admin::ProductsController</title>
<path fill="none" stroke="black" d="M-77.6069,305C-77.6069,305 67.6069,305 67.6069,305 73.6069,305 79.6069,299 79.6069,293 79.6069,293 79.6069,185 79.6069,185 79.6069,179 73.6069,173 67.6069,173 67.6069,173 -77.6069,173 -77.6069,173 -83.6069,173 -89.6069,179 -89.6069,185 -89.6069,185 -89.6069,293 -89.6069,293 -89.6069,299 -83.6069,305 -77.6069,305"/>
<text text-anchor="middle" x="-5" y="188.2" font-family="Times,serif" font-size="14.00">Admin::ProductsController</text>
<polyline fill="none" stroke="black" points="-89.6069,195 79.6069,195 "/>
<text text-anchor="start" x="-81.6069" y="210.2" font-family="Times,serif" font-size="14.00">index</text>
<text text-anchor="start" x="-81.6069" y="224.2" font-family="Times,serif" font-size="14.00">update</text>
<polyline fill="none" stroke="black" points="-89.6069,231 79.6069,231 "/>
<polyline fill="none" stroke="black" points="-89.6069,255 79.6069,255 "/>
<text text-anchor="start" x="-81.6069" y="270.2" font-family="Times,serif" font-size="14.00">_layout</text>
<text text-anchor="start" x="-81.6069" y="284.2" font-family="Times,serif" font-size="14.00">product_params</text>
<text text-anchor="start" x="-81.6069" y="298.2" font-family="Times,serif" font-size="14.00">set_product</text>
</g>
<!-- Admin::ResellersController -->
<g id="node8" class="node"><title>Admin::ResellersController</title>
<path fill="none" stroke="black" d="M-293.766,-73C-293.766,-73 -146.234,-73 -146.234,-73 -140.234,-73 -134.234,-79 -134.234,-85 -134.234,-85 -134.234,-207 -134.234,-207 -134.234,-213 -140.234,-219 -146.234,-219 -146.234,-219 -293.766,-219 -293.766,-219 -299.766,-219 -305.766,-213 -305.766,-207 -305.766,-207 -305.766,-85 -305.766,-85 -305.766,-79 -299.766,-73 -293.766,-73"/>
<text text-anchor="middle" x="-220" y="-203.8" font-family="Times,serif" font-size="14.00">Admin::ResellersController</text>
<polyline fill="none" stroke="black" points="-305.766,-197 -134.234,-197 "/>
<text text-anchor="start" x="-297.766" y="-181.8" font-family="Times,serif" font-size="14.00">destroy</text>
<text text-anchor="start" x="-297.766" y="-167.8" font-family="Times,serif" font-size="14.00">get_certificate</text>
<text text-anchor="start" x="-297.766" y="-153.8" font-family="Times,serif" font-size="14.00">index</text>
<text text-anchor="start" x="-297.766" y="-139.8" font-family="Times,serif" font-size="14.00">update</text>
<polyline fill="none" stroke="black" points="-305.766,-133 -134.234,-133 "/>
<polyline fill="none" stroke="black" points="-305.766,-109 -134.234,-109 "/>
<text text-anchor="start" x="-297.766" y="-93.8" font-family="Times,serif" font-size="14.00">_layout</text>
<text text-anchor="start" x="-297.766" y="-79.8" font-family="Times,serif" font-size="14.00">set_reseller</text>
</g>
<!-- Admin::SessionsController -->
<g id="node9" class="node"><title>Admin::SessionsController</title>
<path fill="none" stroke="black" d="M425.776,-415C425.776,-415 570.224,-415 570.224,-415 576.224,-415 582.224,-421 582.224,-427 582.224,-427 582.224,-523 582.224,-523 582.224,-529 576.224,-535 570.224,-535 570.224,-535 425.776,-535 425.776,-535 419.776,-535 413.776,-529 413.776,-523 413.776,-523 413.776,-427 413.776,-427 413.776,-421 419.776,-415 425.776,-415"/>
<text text-anchor="middle" x="498" y="-519.8" font-family="Times,serif" font-size="14.00">Admin::SessionsController</text>
<polyline fill="none" stroke="black" points="413.776,-513 582.224,-513 "/>
<polyline fill="none" stroke="black" points="413.776,-489 582.224,-489 "/>
<polyline fill="none" stroke="black" points="413.776,-465 582.224,-465 "/>
<text text-anchor="start" x="421.776" y="-449.8" font-family="Times,serif" font-size="14.00">_layout</text>
<text text-anchor="start" x="421.776" y="-435.8" font-family="Times,serif" font-size="14.00">after_sign_in_path_for</text>
<text text-anchor="start" x="421.776" y="-421.8" font-family="Times,serif" font-size="14.00">redirect_logged_in_user</text>
</g>
<!-- Admin::TaxesController -->
<g id="node10" class="node"><title>Admin::TaxesController</title>
<path fill="none" stroke="black" d="M-276.332,143C-276.332,143 -147.668,143 -147.668,143 -141.668,143 -135.668,137 -135.668,131 -135.668,131 -135.668,-19 -135.668,-19 -135.668,-25 -141.668,-31 -147.668,-31 -147.668,-31 -276.332,-31 -276.332,-31 -282.332,-31 -288.332,-25 -288.332,-19 -288.332,-19 -288.332,131 -288.332,131 -288.332,137 -282.332,143 -276.332,143"/>
<text text-anchor="middle" x="-212" y="-15.8" font-family="Times,serif" font-size="14.00">Admin::TaxesController</text>
<polyline fill="none" stroke="black" points="-288.332,-9 -135.668,-9 "/>
<text text-anchor="start" x="-280.332" y="6.2" font-family="Times,serif" font-size="14.00">create</text>
<text text-anchor="start" x="-280.332" y="20.2" font-family="Times,serif" font-size="14.00">destroy</text>
<text text-anchor="start" x="-280.332" y="34.2" font-family="Times,serif" font-size="14.00">index</text>
<text text-anchor="start" x="-280.332" y="48.2" font-family="Times,serif" font-size="14.00">new</text>
<text text-anchor="start" x="-280.332" y="62.2" font-family="Times,serif" font-size="14.00">update</text>
<polyline fill="none" stroke="black" points="-288.332,69 -135.668,69 "/>
<polyline fill="none" stroke="black" points="-288.332,93 -135.668,93 "/>
<text text-anchor="start" x="-280.332" y="108.2" font-family="Times,serif" font-size="14.00">_layout</text>
<text text-anchor="start" x="-280.332" y="122.2" font-family="Times,serif" font-size="14.00">set_tax</text>
<text text-anchor="start" x="-280.332" y="136.2" font-family="Times,serif" font-size="14.00">tax_params</text>
</g>
<!-- ApplicationController -->
<g id="node11" class="node"><title>ApplicationController</title>
<path fill="none" stroke="black" d="M533.852,521C533.852,521 654.148,521 654.148,521 660.148,521 666.148,515 666.148,509 666.148,509 666.148,443 666.148,443 666.148,437 660.148,431 654.148,431 654.148,431 533.852,431 533.852,431 527.852,431 521.852,437 521.852,443 521.852,443 521.852,509 521.852,509 521.852,515 527.852,521 533.852,521"/>
<text text-anchor="middle" x="594" y="446.2" font-family="Times,serif" font-size="14.00">ApplicationController</text>
<polyline fill="none" stroke="black" points="521.852,453 666.148,453 "/>
<text text-anchor="start" x="529.852" y="468.2" font-family="Times,serif" font-size="14.00">after_sign_in_path_for</text>
<polyline fill="none" stroke="black" points="521.852,475 666.148,475 "/>
<polyline fill="none" stroke="black" points="521.852,499 666.148,499 "/>
<text text-anchor="start" x="529.852" y="514.2" font-family="Times,serif" font-size="14.00">_layout</text>
</g>
<!-- ArmorInvoicesController -->
<g id="node12" class="node"><title>ArmorInvoicesController</title>
<path fill="none" stroke="black" d="M371.852,359C371.852,359 506.148,359 506.148,359 512.148,359 518.148,353 518.148,347 518.148,347 518.148,225 518.148,225 518.148,219 512.148,213 506.148,213 506.148,213 371.852,213 371.852,213 365.852,213 359.852,219 359.852,225 359.852,225 359.852,347 359.852,347 359.852,353 365.852,359 371.852,359"/>
<text text-anchor="middle" x="439" y="228.2" font-family="Times,serif" font-size="14.00">ArmorInvoicesController</text>
<polyline fill="none" stroke="black" points="359.852,235 518.148,235 "/>
<text text-anchor="start" x="367.852" y="250.2" font-family="Times,serif" font-size="14.00">destroy</text>
<text text-anchor="start" x="367.852" y="264.2" font-family="Times,serif" font-size="14.00">index</text>
<text text-anchor="start" x="367.852" y="278.2" font-family="Times,serif" font-size="14.00">show</text>
<polyline fill="none" stroke="black" points="359.852,285 518.148,285 "/>
<polyline fill="none" stroke="black" points="359.852,309 518.148,309 "/>
<text text-anchor="start" x="367.852" y="324.2" font-family="Times,serif" font-size="14.00">_layout</text>
<text text-anchor="start" x="367.852" y="338.2" font-family="Times,serif" font-size="14.00">armor_invoice_params</text>
<text text-anchor="start" x="367.852" y="352.2" font-family="Times,serif" font-size="14.00">set_armor_invoice</text>
</g>
<!-- ArmorOrdersController -->
<g id="node13" class="node"><title>ArmorOrdersController</title>
<path fill="none" stroke="black" d="M137.517,-91C137.517,-91 262.483,-91 262.483,-91 268.483,-91 274.483,-97 274.483,-103 274.483,-103 274.483,-281 274.483,-281 274.483,-287 268.483,-293 262.483,-293 262.483,-293 137.517,-293 137.517,-293 131.517,-293 125.517,-287 125.517,-281 125.517,-281 125.517,-103 125.517,-103 125.517,-97 131.517,-91 137.517,-91"/>
<text text-anchor="middle" x="200" y="-277.8" font-family="Times,serif" font-size="14.00">ArmorOrdersController</text>
<polyline fill="none" stroke="black" points="125.517,-271 274.483,-271 "/>
<text text-anchor="start" x="133.517" y="-255.8" font-family="Times,serif" font-size="14.00">create</text>
<text text-anchor="start" x="133.517" y="-241.8" font-family="Times,serif" font-size="14.00">destroy</text>
<text text-anchor="start" x="133.517" y="-227.8" font-family="Times,serif" font-size="14.00">edit</text>
<text text-anchor="start" x="133.517" y="-213.8" font-family="Times,serif" font-size="14.00">index</text>
<text text-anchor="start" x="133.517" y="-199.8" font-family="Times,serif" font-size="14.00">new</text>
<text text-anchor="start" x="133.517" y="-185.8" font-family="Times,serif" font-size="14.00">show</text>
<text text-anchor="start" x="133.517" y="-171.8" font-family="Times,serif" font-size="14.00">update</text>
<polyline fill="none" stroke="black" points="125.517,-165 274.483,-165 "/>
<polyline fill="none" stroke="black" points="125.517,-141 274.483,-141 "/>
<text text-anchor="start" x="133.517" y="-125.8" font-family="Times,serif" font-size="14.00">_layout</text>
<text text-anchor="start" x="133.517" y="-111.8" font-family="Times,serif" font-size="14.00">armor_order_params</text>
<text text-anchor="start" x="133.517" y="-97.8" font-family="Times,serif" font-size="14.00">set_armor_order</text>
</g>
<!-- CategoriesController -->
<g id="node14" class="node"><title>CategoriesController</title>
<path fill="none" stroke="black" d="M-239.707,-253C-239.707,-253 -130.293,-253 -130.293,-253 -124.293,-253 -118.293,-259 -118.293,-265 -118.293,-265 -118.293,-457 -118.293,-457 -118.293,-463 -124.293,-469 -130.293,-469 -130.293,-469 -239.707,-469 -239.707,-469 -245.707,-469 -251.707,-463 -251.707,-457 -251.707,-457 -251.707,-265 -251.707,-265 -251.707,-259 -245.707,-253 -239.707,-253"/>
<text text-anchor="middle" x="-185" y="-453.8" font-family="Times,serif" font-size="14.00">CategoriesController</text>
<polyline fill="none" stroke="black" points="-251.707,-447 -118.293,-447 "/>
<text text-anchor="start" x="-243.707" y="-431.8" font-family="Times,serif" font-size="14.00">create</text>
<text text-anchor="start" x="-243.707" y="-417.8" font-family="Times,serif" font-size="14.00">destroy</text>
<text text-anchor="start" x="-243.707" y="-403.8" font-family="Times,serif" font-size="14.00">edit</text>
<text text-anchor="start" x="-243.707" y="-389.8" font-family="Times,serif" font-size="14.00">index</text>
<text text-anchor="start" x="-243.707" y="-375.8" font-family="Times,serif" font-size="14.00">new</text>
<text text-anchor="start" x="-243.707" y="-361.8" font-family="Times,serif" font-size="14.00">show</text>
<text text-anchor="start" x="-243.707" y="-347.8" font-family="Times,serif" font-size="14.00">sub_categories</text>
<text text-anchor="start" x="-243.707" y="-333.8" font-family="Times,serif" font-size="14.00">update</text>
<polyline fill="none" stroke="black" points="-251.707,-327 -118.293,-327 "/>
<polyline fill="none" stroke="black" points="-251.707,-303 -118.293,-303 "/>
<text text-anchor="start" x="-243.707" y="-287.8" font-family="Times,serif" font-size="14.00">_layout</text>
<text text-anchor="start" x="-243.707" y="-273.8" font-family="Times,serif" font-size="14.00">category_params</text>
<text text-anchor="start" x="-243.707" y="-259.8" font-family="Times,serif" font-size="14.00">set_category</text>
</g>
<!-- ConfirmationsController -->
<g id="node15" class="node"><title>ConfirmationsController</title>
<path fill="none" stroke="black" d="M354.169,485C354.169,485 483.831,485 483.831,485 489.831,485 495.831,479 495.831,473 495.831,473 495.831,407 495.831,407 495.831,401 489.831,395 483.831,395 483.831,395 354.169,395 354.169,395 348.169,395 342.169,401 342.169,407 342.169,407 342.169,473 342.169,473 342.169,479 348.169,485 354.169,485"/>
<text text-anchor="middle" x="419" y="410.2" font-family="Times,serif" font-size="14.00">ConfirmationsController</text>
<polyline fill="none" stroke="black" points="342.169,417 495.831,417 "/>
<text text-anchor="start" x="350.169" y="432.2" font-family="Times,serif" font-size="14.00">show</text>
<polyline fill="none" stroke="black" points="342.169,439 495.831,439 "/>
<polyline fill="none" stroke="black" points="342.169,463 495.831,463 "/>
<text text-anchor="start" x="350.169" y="478.2" font-family="Times,serif" font-size="14.00">_layout</text>
</g>
<!-- Dashboards::InvoicesController -->
<g id="node16" class="node"><title>Dashboards::InvoicesController</title>
<path fill="none" stroke="black" d="M371.576,179C371.576,179 542.424,179 542.424,179 548.424,179 554.424,173 554.424,167 554.424,167 554.424,87 554.424,87 554.424,81 548.424,75 542.424,75 542.424,75 371.576,75 371.576,75 365.576,75 359.576,81 359.576,87 359.576,87 359.576,167 359.576,167 359.576,173 365.576,179 371.576,179"/>
<text text-anchor="middle" x="457" y="90.2" font-family="Times,serif" font-size="14.00">Dashboards::InvoicesController</text>
<polyline fill="none" stroke="black" points="359.576,97 554.424,97 "/>
<text text-anchor="start" x="367.576" y="112.2" font-family="Times,serif" font-size="14.00">delete_cascade</text>
<text text-anchor="start" x="367.576" y="126.2" font-family="Times,serif" font-size="14.00">index</text>
<polyline fill="none" stroke="black" points="359.576,133 554.424,133 "/>
<polyline fill="none" stroke="black" points="359.576,157 554.424,157 "/>
<text text-anchor="start" x="367.576" y="172.2" font-family="Times,serif" font-size="14.00">_layout</text>
</g>
<!-- Dashboards::MessagesController -->
<g id="node17" class="node"><title>Dashboards::MessagesController</title>
<path fill="none" stroke="black" d="M138.072,125C138.072,125 315.928,125 315.928,125 321.928,125 327.928,119 327.928,113 327.928,113 327.928,-51 327.928,-51 327.928,-57 321.928,-63 315.928,-63 315.928,-63 138.072,-63 138.072,-63 132.072,-63 126.072,-57 126.072,-51 126.072,-51 126.072,113 126.072,113 126.072,119 132.072,125 138.072,125"/>
<text text-anchor="middle" x="227" y="-47.8" font-family="Times,serif" font-size="14.00">Dashboards::MessagesController</text>
<polyline fill="none" stroke="black" points="126.072,-41 327.928,-41 "/>
<text text-anchor="start" x="134.072" y="-25.8" font-family="Times,serif" font-size="14.00">delete</text>
<text text-anchor="start" x="134.072" y="-11.8" font-family="Times,serif" font-size="14.00">index</text>
<text text-anchor="start" x="134.072" y="2.2" font-family="Times,serif" font-size="14.00">reply</text>
<text text-anchor="start" x="134.072" y="16.2" font-family="Times,serif" font-size="14.00">trash</text>
<text text-anchor="start" x="134.072" y="30.2" font-family="Times,serif" font-size="14.00">untrash</text>
<polyline fill="none" stroke="black" points="126.072,37 327.928,37 "/>
<polyline fill="none" stroke="black" points="126.072,61 327.928,61 "/>
<text text-anchor="start" x="134.072" y="76.2" font-family="Times,serif" font-size="14.00">_layout</text>
<text text-anchor="start" x="134.072" y="90.2" font-family="Times,serif" font-size="14.00">conversation</text>
<text text-anchor="start" x="134.072" y="104.2" font-family="Times,serif" font-size="14.00">conversation_params</text>
<text text-anchor="start" x="134.072" y="118.2" font-family="Times,serif" font-size="14.00">mailbox</text>
</g>
<!-- Dashboards::OrdersController -->
<g id="node18" class="node"><title>Dashboards::OrdersController</title>
<path fill="none" stroke="black" d="M-293.759,305C-293.759,305 -132.241,305 -132.241,305 -126.241,305 -120.241,299 -120.241,293 -120.241,293 -120.241,199 -120.241,199 -120.241,193 -126.241,187 -132.241,187 -132.241,187 -293.759,187 -293.759,187 -299.759,187 -305.759,193 -305.759,199 -305.759,199 -305.759,293 -305.759,293 -305.759,299 -299.759,305 -293.759,305"/>
<text text-anchor="middle" x="-213" y="202.2" font-family="Times,serif" font-size="14.00">Dashboards::OrdersController</text>
<polyline fill="none" stroke="black" points="-305.759,209 -120.241,209 "/>
<text text-anchor="start" x="-297.759" y="224.2" font-family="Times,serif" font-size="14.00">delete_cascade</text>
<text text-anchor="start" x="-297.759" y="238.2" font-family="Times,serif" font-size="14.00">index</text>
<polyline fill="none" stroke="black" points="-305.759,245 -120.241,245 "/>
<polyline fill="none" stroke="black" points="-305.759,269 -120.241,269 "/>
<text text-anchor="start" x="-297.759" y="284.2" font-family="Times,serif" font-size="14.00">_layout</text>
<text text-anchor="start" x="-297.759" y="298.2" font-family="Times,serif" font-size="14.00">get_order_status</text>
</g>
<!-- Dashboards::PaymentsController -->
<g id="node19" class="node"><title>Dashboards::PaymentsController</title>
<path fill="none" stroke="black" d="M138.069,287C138.069,287 315.931,287 315.931,287 321.931,287 327.931,281 327.931,275 327.931,275 327.931,167 327.931,167 327.931,161 321.931,155 315.931,155 315.931,155 138.069,155 138.069,155 132.069,155 126.069,161 126.069,167 126.069,167 126.069,275 126.069,275 126.069,281 132.069,287 138.069,287"/>
<text text-anchor="middle" x="227" y="170.2" font-family="Times,serif" font-size="14.00">Dashboards::PaymentsController</text>
<polyline fill="none" stroke="black" points="126.069,177 327.931,177 "/>
<text text-anchor="start" x="134.069" y="192.2" font-family="Times,serif" font-size="14.00">index</text>
<text text-anchor="start" x="134.069" y="206.2" font-family="Times,serif" font-size="14.00">update</text>
<polyline fill="none" stroke="black" points="126.069,213 327.931,213 "/>
<polyline fill="none" stroke="black" points="126.069,237 327.931,237 "/>
<text text-anchor="start" x="134.069" y="252.2" font-family="Times,serif" font-size="14.00">_layout</text>
<text text-anchor="start" x="134.069" y="266.2" font-family="Times,serif" font-size="14.00">set_user</text>
<text text-anchor="start" x="134.069" y="280.2" font-family="Times,serif" font-size="14.00">user_params</text>
</g>
<!-- Dashboards::ProductsController -->
<g id="node20" class="node"><title>Dashboards::ProductsController</title>
<path fill="none" stroke="black" d="M-96.2104,143C-96.2104,143 76.2104,143 76.2104,143 82.2104,143 88.2104,137 88.2104,131 88.2104,131 88.2104,-103 88.2104,-103 88.2104,-109 82.2104,-115 76.2104,-115 76.2104,-115 -96.2104,-115 -96.2104,-115 -102.21,-115 -108.21,-109 -108.21,-103 -108.21,-103 -108.21,131 -108.21,131 -108.21,137 -102.21,143 -96.2104,143"/>
<text text-anchor="middle" x="-10" y="-99.8" font-family="Times,serif" font-size="14.00">Dashboards::ProductsController</text>
<polyline fill="none" stroke="black" points="-108.21,-93 88.2104,-93 "/>
<text text-anchor="start" x="-100.21" y="-77.8" font-family="Times,serif" font-size="14.00">active_cascade</text>
<text text-anchor="start" x="-100.21" y="-63.8" font-family="Times,serif" font-size="14.00">create</text>
<text text-anchor="start" x="-100.21" y="-49.8" font-family="Times,serif" font-size="14.00">delete_cascade</text>
<text text-anchor="start" x="-100.21" y="-35.8" font-family="Times,serif" font-size="14.00">destroy</text>
<text text-anchor="start" x="-100.21" y="-21.8" font-family="Times,serif" font-size="14.00">edit</text>
<text text-anchor="start" x="-100.21" y="-7.8" font-family="Times,serif" font-size="14.00">inactive_cascade</text>
<text text-anchor="start" x="-100.21" y="6.2" font-family="Times,serif" font-size="14.00">index</text>
<text text-anchor="start" x="-100.21" y="20.2" font-family="Times,serif" font-size="14.00">new</text>
<text text-anchor="start" x="-100.21" y="34.2" font-family="Times,serif" font-size="14.00">update</text>
<polyline fill="none" stroke="black" points="-108.21,41 88.2104,41 "/>
<polyline fill="none" stroke="black" points="-108.21,65 88.2104,65 "/>
<text text-anchor="start" x="-100.21" y="80.2" font-family="Times,serif" font-size="14.00">_layout</text>
<text text-anchor="start" x="-100.21" y="94.2" font-family="Times,serif" font-size="14.00">parse_categories</text>
<text text-anchor="start" x="-100.21" y="108.2" font-family="Times,serif" font-size="14.00">parse_pricebrakes</text>
<text text-anchor="start" x="-100.21" y="122.2" font-family="Times,serif" font-size="14.00">product_params</text>
<text text-anchor="start" x="-100.21" y="136.2" font-family="Times,serif" font-size="14.00">set_product</text>
</g>
<!-- Dashboards::ProfilesController -->
<g id="node21" class="node"><title>Dashboards::ProfilesController</title>
<path fill="none" stroke="black" d="M317.896,-91C317.896,-91 484.104,-91 484.104,-91 490.104,-91 496.104,-97 496.104,-103 496.104,-103 496.104,-211 496.104,-211 496.104,-217 490.104,-223 484.104,-223 484.104,-223 317.896,-223 317.896,-223 311.896,-223 305.896,-217 305.896,-211 305.896,-211 305.896,-103 305.896,-103 305.896,-97 311.896,-91 317.896,-91"/>
<text text-anchor="middle" x="401" y="-207.8" font-family="Times,serif" font-size="14.00">Dashboards::ProfilesController</text>
<polyline fill="none" stroke="black" points="305.896,-201 496.104,-201 "/>
<text text-anchor="start" x="313.896" y="-185.8" font-family="Times,serif" font-size="14.00">show</text>
<text text-anchor="start" x="313.896" y="-171.8" font-family="Times,serif" font-size="14.00">update</text>
<polyline fill="none" stroke="black" points="305.896,-165 496.104,-165 "/>
<polyline fill="none" stroke="black" points="305.896,-141 496.104,-141 "/>
<text text-anchor="start" x="313.896" y="-125.8" font-family="Times,serif" font-size="14.00">_layout</text>
<text text-anchor="start" x="313.896" y="-111.8" font-family="Times,serif" font-size="14.00">set_user</text>
<text text-anchor="start" x="313.896" y="-97.8" font-family="Times,serif" font-size="14.00">user_params</text>
</g>
<!-- Dashboards::RequestsController -->
<g id="node22" class="node"><title>Dashboards::RequestsController</title>
<path fill="none" stroke="black" d="M318.014,-253C318.014,-253 491.986,-253 491.986,-253 497.986,-253 503.986,-259 503.986,-265 503.986,-265 503.986,-373 503.986,-373 503.986,-379 497.986,-385 491.986,-385 491.986,-385 318.014,-385 318.014,-385 312.014,-385 306.014,-379 306.014,-373 306.014,-373 306.014,-265 306.014,-265 306.014,-259 312.014,-253 318.014,-253"/>
<text text-anchor="middle" x="405" y="-369.8" font-family="Times,serif" font-size="14.00">Dashboards::RequestsController</text>
<polyline fill="none" stroke="black" points="306.014,-363 503.986,-363 "/>
<text text-anchor="start" x="314.014" y="-347.8" font-family="Times,serif" font-size="14.00">index</text>
<text text-anchor="start" x="314.014" y="-333.8" font-family="Times,serif" font-size="14.00">reply</text>
<text text-anchor="start" x="314.014" y="-319.8" font-family="Times,serif" font-size="14.00">show</text>
<polyline fill="none" stroke="black" points="306.014,-313 503.986,-313 "/>
<polyline fill="none" stroke="black" points="306.014,-289 503.986,-289 "/>
<text text-anchor="start" x="314.014" y="-273.8" font-family="Times,serif" font-size="14.00">_layout</text>
<text text-anchor="start" x="314.014" y="-259.8" font-family="Times,serif" font-size="14.00">request_params</text>
</g>
<!-- Dashboards::ShipmentsController -->
<g id="node23" class="node"><title>Dashboards::ShipmentsController</title>
<path fill="none" stroke="black" d="M119.731,413C119.731,413 302.269,413 302.269,413 308.269,413 314.269,407 314.269,401 314.269,401 314.269,335 314.269,335 314.269,329 308.269,323 302.269,323 302.269,323 119.731,323 119.731,323 113.731,323 107.731,329 107.731,335 107.731,335 107.731,401 107.731,401 107.731,407 113.731,413 119.731,413"/>
<text text-anchor="middle" x="211" y="338.2" font-family="Times,serif" font-size="14.00">Dashboards::ShipmentsController</text>
<polyline fill="none" stroke="black" points="107.731,345 314.269,345 "/>
<text text-anchor="start" x="115.731" y="360.2" font-family="Times,serif" font-size="14.00">index</text>
<polyline fill="none" stroke="black" points="107.731,367 314.269,367 "/>
<polyline fill="none" stroke="black" points="107.731,391 314.269,391 "/>
<text text-anchor="start" x="115.731" y="406.2" font-family="Times,serif" font-size="14.00">_layout</text>
</g>
<!-- DashboardsController -->
<g id="node24" class="node"><title>DashboardsController</title>
<path fill="none" stroke="black" d="M-473.821,-127C-473.821,-127 -358.179,-127 -358.179,-127 -352.179,-127 -346.179,-133 -346.179,-139 -346.179,-139 -346.179,-207 -346.179,-207 -346.179,-213 -352.179,-219 -358.179,-219 -358.179,-219 -473.821,-219 -473.821,-219 -479.821,-219 -485.821,-213 -485.821,-207 -485.821,-207 -485.821,-139 -485.821,-139 -485.821,-133 -479.821,-127 -473.821,-127"/>
<text text-anchor="middle" x="-416" y="-203.8" font-family="Times,serif" font-size="14.00">DashboardsController</text>
<polyline fill="none" stroke="black" points="-485.821,-197 -346.179,-197 "/>
<polyline fill="none" stroke="black" points="-485.821,-173 -346.179,-173 "/>
<polyline fill="none" stroke="black" points="-485.821,-149 -346.179,-149 "/>
<text text-anchor="start" x="-477.821" y="-133.8" font-family="Times,serif" font-size="14.00">_layout</text>
</g>
<!-- InfosController -->
<g id="node25" class="node"><title>InfosController</title>
<path fill="none" stroke="black" d="M-384.159,-397C-384.159,-397 -305.841,-397 -305.841,-397 -299.841,-397 -293.841,-403 -293.841,-409 -293.841,-409 -293.841,-573 -293.841,-573 -293.841,-579 -299.841,-585 -305.841,-585 -305.841,-585 -384.159,-585 -384.159,-585 -390.159,-585 -396.159,-579 -396.159,-573 -396.159,-573 -396.159,-409 -396.159,-409 -396.159,-403 -390.159,-397 -384.159,-397"/>
<text text-anchor="middle" x="-345" y="-569.8" font-family="Times,serif" font-size="14.00">InfosController</text>
<polyline fill="none" stroke="black" points="-396.159,-563 -293.841,-563 "/>
<text text-anchor="start" x="-388.159" y="-547.8" font-family="Times,serif" font-size="14.00">brokers_info</text>
<text text-anchor="start" x="-388.159" y="-533.8" font-family="Times,serif" font-size="14.00">contacts_info</text>
<text text-anchor="start" x="-388.159" y="-519.8" font-family="Times,serif" font-size="14.00">faq_info</text>
<text text-anchor="start" x="-388.159" y="-505.8" font-family="Times,serif" font-size="14.00">imprint_info</text>
<text text-anchor="start" x="-388.159" y="-491.8" font-family="Times,serif" font-size="14.00">payments_info</text>
<text text-anchor="start" x="-388.159" y="-477.8" font-family="Times,serif" font-size="14.00">press_info</text>
<text text-anchor="start" x="-388.159" y="-463.8" font-family="Times,serif" font-size="14.00">what_we_do</text>
<text text-anchor="start" x="-388.159" y="-449.8" font-family="Times,serif" font-size="14.00">why_toad</text>
<polyline fill="none" stroke="black" points="-396.159,-443 -293.841,-443 "/>
<polyline fill="none" stroke="black" points="-396.159,-419 -293.841,-419 "/>
<text text-anchor="start" x="-388.159" y="-403.8" font-family="Times,serif" font-size="14.00">_layout</text>
</g>
<!-- MainController -->
<g id="node26" class="node"><title>MainController</title>
<path fill="none" stroke="black" d="M-78.3657,-361C-78.3657,-361 40.3657,-361 40.3657,-361 46.3657,-361 52.3657,-367 52.3657,-373 52.3657,-373 52.3657,-495 52.3657,-495 52.3657,-501 46.3657,-507 40.3657,-507 40.3657,-507 -78.3657,-507 -78.3657,-507 -84.3657,-507 -90.3657,-501 -90.3657,-495 -90.3657,-495 -90.3657,-373 -90.3657,-373 -90.3657,-367 -84.3657,-361 -78.3657,-361"/>
<text text-anchor="middle" x="-19" y="-491.8" font-family="Times,serif" font-size="14.00">MainController</text>
<polyline fill="none" stroke="black" points="-90.3657,-485 52.3657,-485 "/>
<text text-anchor="start" x="-82.3657" y="-469.8" font-family="Times,serif" font-size="14.00">index</text>
<text text-anchor="start" x="-82.3657" y="-455.8" font-family="Times,serif" font-size="14.00">search_by_buy</text>
<text text-anchor="start" x="-82.3657" y="-441.8" font-family="Times,serif" font-size="14.00">search_by_sell</text>
<polyline fill="none" stroke="black" points="-90.3657,-435 52.3657,-435 "/>
<polyline fill="none" stroke="black" points="-90.3657,-411 52.3657,-411 "/>
<text text-anchor="start" x="-82.3657" y="-395.8" font-family="Times,serif" font-size="14.00">_layout</text>
<text text-anchor="start" x="-82.3657" y="-381.8" font-family="Times,serif" font-size="14.00">category_params</text>
<text text-anchor="start" x="-82.3657" y="-367.8" font-family="Times,serif" font-size="14.00">products_for_category</text>
</g>
<!-- MessagesController -->
<g id="node27" class="node"><title>MessagesController</title>
<path fill="none" stroke="black" d="M-239.99,-505C-239.99,-505 -136.01,-505 -136.01,-505 -130.01,-505 -124.01,-511 -124.01,-517 -124.01,-517 -124.01,-597 -124.01,-597 -124.01,-603 -130.01,-609 -136.01,-609 -136.01,-609 -239.99,-609 -239.99,-609 -245.99,-609 -251.99,-603 -251.99,-597 -251.99,-597 -251.99,-517 -251.99,-517 -251.99,-511 -245.99,-505 -239.99,-505"/>
<text text-anchor="middle" x="-188" y="-593.8" font-family="Times,serif" font-size="14.00">MessagesController</text>
<polyline fill="none" stroke="black" points="-251.99,-587 -124.01,-587 "/>
<text text-anchor="start" x="-243.99" y="-571.8" font-family="Times,serif" font-size="14.00">create</text>
<polyline fill="none" stroke="black" points="-251.99,-565 -124.01,-565 "/>
<polyline fill="none" stroke="black" points="-251.99,-541 -124.01,-541 "/>
<text text-anchor="start" x="-243.99" y="-525.8" font-family="Times,serif" font-size="14.00">_layout</text>
<text text-anchor="start" x="-243.99" y="-511.8" font-family="Times,serif" font-size="14.00">message_params</text>
</g>
<!-- ProductsController -->
<g id="node28" class="node"><title>ProductsController</title>
<path fill="none" stroke="black" d="M-456.272,287C-456.272,287 -357.728,287 -357.728,287 -351.728,287 -345.728,281 -345.728,275 -345.728,275 -345.728,139 -345.728,139 -345.728,133 -351.728,127 -357.728,127 -357.728,127 -456.272,127 -456.272,127 -462.272,127 -468.272,133 -468.272,139 -468.272,139 -468.272,275 -468.272,275 -468.272,281 -462.272,287 -456.272,287"/>
<text text-anchor="middle" x="-407" y="142.2" font-family="Times,serif" font-size="14.00">ProductsController</text>
<polyline fill="none" stroke="black" points="-468.272,149 -345.728,149 "/>
<text text-anchor="start" x="-460.272" y="164.2" font-family="Times,serif" font-size="14.00">deals</text>
<text text-anchor="start" x="-460.272" y="178.2" font-family="Times,serif" font-size="14.00">index</text>
<text text-anchor="start" x="-460.272" y="192.2" font-family="Times,serif" font-size="14.00">offers</text>
<text text-anchor="start" x="-460.272" y="206.2" font-family="Times,serif" font-size="14.00">products</text>
<text text-anchor="start" x="-460.272" y="220.2" font-family="Times,serif" font-size="14.00">show</text>
<polyline fill="none" stroke="black" points="-468.272,227 -345.728,227 "/>
<polyline fill="none" stroke="black" points="-468.272,251 -345.728,251 "/>
<text text-anchor="start" x="-460.272" y="266.2" font-family="Times,serif" font-size="14.00">_layout</text>
<text text-anchor="start" x="-460.272" y="280.2" font-family="Times,serif" font-size="14.00">set_product</text>
</g>
<!-- RegistrationsController -->
<g id="node29" class="node"><title>RegistrationsController</title>
<path fill="none" stroke="black" d="M-419.714,-253C-419.714,-253 -296.286,-253 -296.286,-253 -290.286,-253 -284.286,-259 -284.286,-265 -284.286,-265 -284.286,-345 -284.286,-345 -284.286,-351 -290.286,-357 -296.286,-357 -296.286,-357 -419.714,-357 -419.714,-357 -425.714,-357 -431.714,-351 -431.714,-345 -431.714,-345 -431.714,-265 -431.714,-265 -431.714,-259 -425.714,-253 -419.714,-253"/>
<text text-anchor="middle" x="-358" y="-341.8" font-family="Times,serif" font-size="14.00">RegistrationsController</text>
<polyline fill="none" stroke="black" points="-431.714,-335 -284.286,-335 "/>
<text text-anchor="start" x="-423.714" y="-319.8" font-family="Times,serif" font-size="14.00">create</text>
<polyline fill="none" stroke="black" points="-431.714,-313 -284.286,-313 "/>
<polyline fill="none" stroke="black" points="-431.714,-289 -284.286,-289 "/>
<text text-anchor="start" x="-423.714" y="-273.8" font-family="Times,serif" font-size="14.00">_layout</text>
<text text-anchor="start" x="-423.714" y="-259.8" font-family="Times,serif" font-size="14.00">user_params</text>
</g>
<!-- RequestsController -->
<g id="node30" class="node"><title>RequestsController</title>
<path fill="none" stroke="black" d="M263.952,-505C263.952,-505 364.048,-505 364.048,-505 370.048,-505 376.048,-511 376.048,-517 376.048,-517 376.048,-597 376.048,-597 376.048,-603 370.048,-609 364.048,-609 364.048,-609 263.952,-609 263.952,-609 257.952,-609 251.952,-603 251.952,-597 251.952,-597 251.952,-517 251.952,-517 251.952,-511 257.952,-505 263.952,-505"/>
<text text-anchor="middle" x="314" y="-593.8" font-family="Times,serif" font-size="14.00">RequestsController</text>
<polyline fill="none" stroke="black" points="251.952,-587 376.048,-587 "/>
<text text-anchor="start" x="259.952" y="-571.8" font-family="Times,serif" font-size="14.00">create</text>
<polyline fill="none" stroke="black" points="251.952,-565 376.048,-565 "/>
<polyline fill="none" stroke="black" points="251.952,-541 376.048,-541 "/>
<text text-anchor="start" x="259.952" y="-525.8" font-family="Times,serif" font-size="14.00">_layout</text>
<text text-anchor="start" x="259.952" y="-511.8" font-family="Times,serif" font-size="14.00">request_params</text>
</g>
<!-- SearchController -->
<g id="node31" class="node"><title>SearchController</title>
<path fill="none" stroke="black" d="M120.183,-505C120.183,-505 207.817,-505 207.817,-505 213.817,-505 219.817,-511 219.817,-517 219.817,-517 219.817,-597 219.817,-597 219.817,-603 213.817,-609 207.817,-609 207.817,-609 120.183,-609 120.183,-609 114.183,-609 108.183,-603 108.183,-597 108.183,-597 108.183,-517 108.183,-517 108.183,-511 114.183,-505 120.183,-505"/>
<text text-anchor="middle" x="164" y="-593.8" font-family="Times,serif" font-size="14.00">SearchController</text>
<polyline fill="none" stroke="black" points="108.183,-587 219.817,-587 "/>
<text text-anchor="start" x="116.183" y="-571.8" font-family="Times,serif" font-size="14.00">autocomplete</text>
<text text-anchor="start" x="116.183" y="-557.8" font-family="Times,serif" font-size="14.00">index</text>
<polyline fill="none" stroke="black" points="108.183,-551 219.817,-551 "/>
<polyline fill="none" stroke="black" points="108.183,-527 219.817,-527 "/>
<text text-anchor="start" x="116.183" y="-511.8" font-family="Times,serif" font-size="14.00">_layout</text>
</g>
</g>
</svg>
